<svg xmlns="http://www.w3.org/2000/svg" xmlns:xlink="http://www.w3.org/1999/xlink" width="1366" zoomAndPan="magnify" viewBox="0 0 1024.5 439.5" height="586" preserveAspectRatio="xMidYMid meet" version="1.0"><defs><g/><clipPath id="ae577ed501"><path d="M 0.332031 0 L 1023.667969 0 L 1023.667969 439 L 0.332031 439 Z M 0.332031 0 " clip-rule="nonzero"/></clipPath><clipPath id="858e6b3d4a"><path d="M 0.332031 319.414062 L 1023.5 319.414062 L 1023.5 439 L 0.332031 439 Z M 0.332031 319.414062 " clip-rule="nonzero"/></clipPath><clipPath id="e49e348b6a"><path d="M 0.332031 0.414062 L 1023.5 0.414062 L 1023.5 120 L 0.332031 120 Z M 0.332031 0.414062 " clip-rule="nonzero"/></clipPath><clipPath id="da9ded8f16"><rect x="0" width="1024" y="0" height="120"/></clipPath><clipPath id="c4613cfa57"><rect x="0" width="403" y="0" height="49"/></clipPath></defs><g clip-path="url(#ae577ed501)"><path fill="#ffffff" d="M 0.332031 0 L 1023.667969 0 L 1023.667969 439 L 0.332031 439 Z M 0.332031 0 " fill-opacity="1" fill-rule="nonzero"/><path fill="#ffffff" d="M 0.332031 0 L 1023.667969 0 L 1023.667969 439 L 0.332031 439 Z M 0.332031 0 " fill-opacity="1" fill-rule="nonzero"/></g><g clip-path="url(#858e6b3d4a)"><g transform="matrix(1, 0, 0, 1, 0.000000000000000056, 319)"><g clip-path="url(#da9ded8f16)"><g clip-path="url(#e49e348b6a)"><path fill="#354e84" d="M 0.332031 0.414062 L 1023.164062 0.414062 L 1023.164062 222.128906 L 0.332031 222.128906 Z M 0.332031 0.414062 " fill-opacity="1" fill-rule="nonzero"/></g></g></g></g><g fill="#252992" fill-opacity="1"><g transform="translate(382.192866, 50.087665)"><g><path d="M 26.6875 -6.625 L 12.671875 -6.625 L 10.421875 0 L 0.859375 0 L 14.4375 -37.546875 L 25.03125 -37.546875 L 38.609375 0 L 28.9375 0 Z M 24.328125 -13.6875 L 19.6875 -27.4375 L 15.078125 -13.6875 Z M 24.328125 -13.6875 "/></g></g></g><g fill="#252992" fill-opacity="1"><g transform="translate(421.609197, 50.087665)"><g><path d="M 21.5 -30.171875 C 25 -30.171875 27.789062 -29.035156 29.875 -26.765625 C 31.957031 -24.503906 33 -21.394531 33 -17.4375 L 33 0 L 23.90625 0 L 23.90625 -16.203125 C 23.90625 -18.203125 23.390625 -19.753906 22.359375 -20.859375 C 21.328125 -21.960938 19.9375 -22.515625 18.1875 -22.515625 C 16.4375 -22.515625 15.046875 -21.960938 14.015625 -20.859375 C 12.984375 -19.753906 12.46875 -18.203125 12.46875 -16.203125 L 12.46875 0 L 3.3125 0 L 3.3125 -29.84375 L 12.46875 -29.84375 L 12.46875 -25.890625 C 13.394531 -27.203125 14.640625 -28.242188 16.203125 -29.015625 C 17.773438 -29.785156 19.539062 -30.171875 21.5 -30.171875 Z M 21.5 -30.171875 "/></g></g></g><g fill="#252992" fill-opacity="1"><g transform="translate(457.656145, 50.087665)"><g><path d="M 32.78125 -29.84375 L 32.78125 0 L 23.640625 0 L 23.640625 -4.0625 C 22.710938 -2.738281 21.453125 -1.675781 19.859375 -0.875 C 18.273438 -0.0703125 16.519531 0.328125 14.59375 0.328125 C 12.3125 0.328125 10.296875 -0.179688 8.546875 -1.203125 C 6.804688 -2.222656 5.453125 -3.691406 4.484375 -5.609375 C 3.523438 -7.535156 3.046875 -9.800781 3.046875 -12.40625 L 3.046875 -29.84375 L 12.140625 -29.84375 L 12.140625 -13.640625 C 12.140625 -11.640625 12.65625 -10.085938 13.6875 -8.984375 C 14.726562 -7.878906 16.117188 -7.328125 17.859375 -7.328125 C 19.640625 -7.328125 21.046875 -7.878906 22.078125 -8.984375 C 23.117188 -10.085938 23.640625 -11.640625 23.640625 -13.640625 L 23.640625 -29.84375 Z M 32.78125 -29.84375 "/></g></g></g><g fill="#252992" fill-opacity="1"><g transform="translate(493.703094, 50.087665)"><g><path d="M 21.5 -30.171875 C 25 -30.171875 27.789062 -29.035156 29.875 -26.765625 C 31.957031 -24.503906 33 -21.394531 33 -17.4375 L 33 0 L 23.90625 0 L 23.90625 -16.203125 C 23.90625 -18.203125 23.390625 -19.753906 22.359375 -20.859375 C 21.328125 -21.960938 19.9375 -22.515625 18.1875 -22.515625 C 16.4375 -22.515625 15.046875 -21.960938 14.015625 -20.859375 C 12.984375 -19.753906 12.46875 -18.203125 12.46875 -16.203125 L 12.46875 0 L 3.3125 0 L 3.3125 -29.84375 L 12.46875 -29.84375 L 12.46875 -25.890625 C 13.394531 -27.203125 14.640625 -28.242188 16.203125 -29.015625 C 17.773438 -29.785156 19.539062 -30.171875 21.5 -30.171875 Z M 21.5 -30.171875 "/></g></g></g><g fill="#252992" fill-opacity="1"><g transform="translate(529.750043, 50.087665)"><g><path d="M 1.5 -14.921875 C 1.5 -18.023438 2.128906 -20.734375 3.390625 -23.046875 C 4.660156 -25.367188 6.425781 -27.148438 8.6875 -28.390625 C 10.957031 -29.640625 13.550781 -30.265625 16.46875 -30.265625 C 20.21875 -30.265625 23.347656 -29.285156 25.859375 -27.328125 C 28.367188 -25.367188 30.019531 -22.609375 30.8125 -19.046875 L 21.078125 -19.046875 C 20.253906 -21.328125 18.664062 -22.46875 16.3125 -22.46875 C 14.632812 -22.46875 13.296875 -21.816406 12.296875 -20.515625 C 11.296875 -19.210938 10.796875 -17.347656 10.796875 -14.921875 C 10.796875 -12.492188 11.296875 -10.628906 12.296875 -9.328125 C 13.296875 -8.023438 14.632812 -7.375 16.3125 -7.375 C 18.664062 -7.375 20.253906 -8.515625 21.078125 -10.796875 L 30.8125 -10.796875 C 30.019531 -7.304688 28.359375 -4.5625 25.828125 -2.5625 C 23.296875 -0.570312 20.175781 0.421875 16.46875 0.421875 C 13.550781 0.421875 10.957031 -0.195312 8.6875 -1.4375 C 6.425781 -2.6875 4.660156 -4.46875 3.390625 -6.78125 C 2.128906 -9.101562 1.5 -11.816406 1.5 -14.921875 Z M 1.5 -14.921875 "/></g></g></g><g fill="#252992" fill-opacity="1"><g transform="translate(562.106728, 50.087665)"><g><path d="M 7.921875 -32.953125 C 6.316406 -32.953125 5.003906 -33.421875 3.984375 -34.359375 C 2.960938 -35.304688 2.453125 -36.472656 2.453125 -37.859375 C 2.453125 -39.285156 2.960938 -40.472656 3.984375 -41.421875 C 5.003906 -42.367188 6.316406 -42.84375 7.921875 -42.84375 C 9.484375 -42.84375 10.769531 -42.367188 11.78125 -41.421875 C 12.800781 -40.472656 13.3125 -39.285156 13.3125 -37.859375 C 13.3125 -36.472656 12.800781 -35.304688 11.78125 -34.359375 C 10.769531 -33.421875 9.484375 -32.953125 7.921875 -32.953125 Z M 12.46875 -29.84375 L 12.46875 0 L 3.3125 0 L 3.3125 -29.84375 Z M 12.46875 -29.84375 "/></g></g></g><g fill="#252992" fill-opacity="1"><g transform="translate(577.883971, 50.087665)"><g><path d="M 16.90625 0.421875 C 13.976562 0.421875 11.347656 -0.195312 9.015625 -1.4375 C 6.679688 -2.6875 4.84375 -4.46875 3.5 -6.78125 C 2.164062 -9.101562 1.5 -11.816406 1.5 -14.921875 C 1.5 -17.984375 2.175781 -20.679688 3.53125 -23.015625 C 4.882812 -25.359375 6.738281 -27.148438 9.09375 -28.390625 C 11.445312 -29.640625 14.085938 -30.265625 17.015625 -30.265625 C 19.929688 -30.265625 22.566406 -29.640625 24.921875 -28.390625 C 27.273438 -27.148438 29.128906 -25.359375 30.484375 -23.015625 C 31.835938 -20.679688 32.515625 -17.984375 32.515625 -14.921875 C 32.515625 -11.859375 31.828125 -9.15625 30.453125 -6.8125 C 29.085938 -4.476562 27.21875 -2.6875 24.84375 -1.4375 C 22.46875 -0.195312 19.820312 0.421875 16.90625 0.421875 Z M 16.90625 -7.484375 C 18.644531 -7.484375 20.128906 -8.125 21.359375 -9.40625 C 22.597656 -10.695312 23.21875 -12.535156 23.21875 -14.921875 C 23.21875 -17.304688 22.617188 -19.140625 21.421875 -20.421875 C 20.222656 -21.710938 18.753906 -22.359375 17.015625 -22.359375 C 15.222656 -22.359375 13.738281 -21.722656 12.5625 -20.453125 C 11.382812 -19.191406 10.796875 -17.347656 10.796875 -14.921875 C 10.796875 -12.535156 11.375 -10.695312 12.53125 -9.40625 C 13.695312 -8.125 15.15625 -7.484375 16.90625 -7.484375 Z M 16.90625 -7.484375 "/></g></g></g><g fill="#252992" fill-opacity="1"><g transform="translate(611.952084, 50.087665)"><g><path d="M 15.453125 0.421875 C 12.847656 0.421875 10.53125 -0.0195312 8.5 -0.90625 C 6.46875 -1.800781 4.863281 -3.023438 3.6875 -4.578125 C 2.507812 -6.128906 1.851562 -7.863281 1.71875 -9.78125 L 10.75 -9.78125 C 10.851562 -8.75 11.332031 -7.910156 12.1875 -7.265625 C 13.050781 -6.628906 14.101562 -6.3125 15.34375 -6.3125 C 16.488281 -6.3125 17.375 -6.53125 18 -6.96875 C 18.625 -7.414062 18.9375 -8 18.9375 -8.71875 C 18.9375 -9.570312 18.488281 -10.203125 17.59375 -10.609375 C 16.707031 -11.023438 15.265625 -11.484375 13.265625 -11.984375 C 11.128906 -12.484375 9.347656 -13.007812 7.921875 -13.5625 C 6.492188 -14.113281 5.257812 -14.984375 4.21875 -16.171875 C 3.1875 -17.367188 2.671875 -18.984375 2.671875 -21.015625 C 2.671875 -22.734375 3.144531 -24.296875 4.09375 -25.703125 C 5.039062 -27.109375 6.429688 -28.21875 8.265625 -29.03125 C 10.097656 -29.851562 12.28125 -30.265625 14.8125 -30.265625 C 18.5625 -30.265625 21.515625 -29.335938 23.671875 -27.484375 C 25.828125 -25.628906 27.066406 -23.171875 27.390625 -20.109375 L 18.9375 -20.109375 C 18.789062 -21.140625 18.332031 -21.957031 17.5625 -22.5625 C 16.800781 -23.175781 15.796875 -23.484375 14.546875 -23.484375 C 13.472656 -23.484375 12.648438 -23.273438 12.078125 -22.859375 C 11.515625 -22.453125 11.234375 -21.894531 11.234375 -21.1875 C 11.234375 -20.320312 11.6875 -19.675781 12.59375 -19.25 C 13.5 -18.820312 14.914062 -18.394531 16.84375 -17.96875 C 19.050781 -17.394531 20.847656 -16.832031 22.234375 -16.28125 C 23.628906 -15.726562 24.851562 -14.835938 25.90625 -13.609375 C 26.957031 -12.378906 27.503906 -10.734375 27.546875 -8.671875 C 27.546875 -6.921875 27.054688 -5.359375 26.078125 -3.984375 C 25.097656 -2.609375 23.6875 -1.53125 21.84375 -0.75 C 20.007812 0.03125 17.878906 0.421875 15.453125 0.421875 Z M 15.453125 0.421875 "/></g></g></g><g transform="matrix(1, 0, 0, 1, 322, 75)"><g clip-path="url(#c4613cfa57)"><g fill="#000000" fill-opacity="1"><g transform="translate(0.701601, 18.640603)"><g><path d="M 3.296875 0 L 1.921875 0 L 1.921875 -12.6875 L 4.125 -12.6875 L 7.984375 -1.9375 L 8.15625 -1.9375 L 12 -12.6875 L 14.140625 -12.6875 L 14.140625 0 L 12.734375 0 L 12.734375 -10.359375 L 12.515625 -10.390625 L 8.765625 0 L 7.28125 0 L 3.515625 -10.390625 L 3.296875 -10.359375 Z M 3.296875 0 "/></g></g></g><g fill="#000000" fill-opacity="1"><g transform="translate(16.77786, 18.640603)"><g><path d="M 3.953125 0.1875 C 3.003906 0.1875 2.265625 -0.0546875 1.734375 -0.546875 C 1.210938 -1.046875 0.953125 -1.753906 0.953125 -2.671875 C 0.953125 -3.234375 1.066406 -3.707031 1.296875 -4.09375 C 1.535156 -4.488281 1.898438 -4.804688 2.390625 -5.046875 C 2.878906 -5.296875 3.519531 -5.488281 4.3125 -5.625 C 5.007812 -5.738281 5.535156 -5.867188 5.890625 -6.015625 C 6.253906 -6.160156 6.5 -6.320312 6.625 -6.5 C 6.75 -6.675781 6.8125 -6.90625 6.8125 -7.1875 C 6.8125 -7.613281 6.660156 -7.941406 6.359375 -8.171875 C 6.066406 -8.410156 5.59375 -8.53125 4.9375 -8.53125 C 4.3125 -8.53125 3.773438 -8.410156 3.328125 -8.171875 C 2.890625 -7.929688 2.488281 -7.570312 2.125 -7.09375 L 1.9375 -7.09375 L 1.25 -8.078125 C 1.65625 -8.585938 2.171875 -8.992188 2.796875 -9.296875 C 3.421875 -9.609375 4.132812 -9.765625 4.9375 -9.765625 C 6.0625 -9.765625 6.890625 -9.515625 7.421875 -9.015625 C 7.960938 -8.523438 8.234375 -7.84375 8.234375 -6.96875 L 8.234375 -1.890625 C 8.234375 -1.347656 8.457031 -1.078125 8.90625 -1.078125 C 9.0625 -1.078125 9.207031 -1.101562 9.34375 -1.15625 L 9.46875 -1.125 L 9.625 -0.140625 C 9.519531 -0.078125 9.378906 -0.03125 9.203125 0 C 9.035156 0.0390625 8.863281 0.0625 8.6875 0.0625 C 8.164062 0.0625 7.769531 -0.0507812 7.5 -0.28125 C 7.226562 -0.507812 7.054688 -0.847656 6.984375 -1.296875 L 6.796875 -1.3125 C 6.523438 -0.8125 6.15625 -0.4375 5.6875 -0.1875 C 5.226562 0.0625 4.648438 0.1875 3.953125 0.1875 Z M 4.265625 -0.953125 C 4.796875 -0.953125 5.253906 -1.070312 5.640625 -1.3125 C 6.035156 -1.5625 6.335938 -1.90625 6.546875 -2.34375 C 6.753906 -2.789062 6.859375 -3.304688 6.859375 -3.890625 L 6.859375 -5.109375 L 6.6875 -5.15625 C 6.476562 -5 6.21875 -4.867188 5.90625 -4.765625 C 5.601562 -4.671875 5.175781 -4.582031 4.625 -4.5 C 4.070312 -4.425781 3.628906 -4.3125 3.296875 -4.15625 C 2.972656 -4 2.738281 -3.796875 2.59375 -3.546875 C 2.457031 -3.304688 2.390625 -3.015625 2.390625 -2.671875 C 2.390625 -2.109375 2.554688 -1.679688 2.890625 -1.390625 C 3.222656 -1.097656 3.679688 -0.953125 4.265625 -0.953125 Z M 4.265625 -0.953125 "/></g></g></g><g fill="#000000" fill-opacity="1"><g transform="translate(26.687646, 18.640603)"><g><path d="M 1.671875 0 L 1.671875 -9.578125 L 3.015625 -9.578125 L 3.015625 -8.078125 L 3.1875 -8.03125 C 3.507812 -8.59375 3.914062 -9.019531 4.40625 -9.3125 C 4.90625 -9.613281 5.507812 -9.765625 6.21875 -9.765625 C 7.375 -9.765625 8.207031 -9.46875 8.71875 -8.875 C 9.238281 -8.289062 9.5 -7.390625 9.5 -6.171875 L 9.5 0 L 8.09375 0 L 8.09375 -6.125 C 8.09375 -6.707031 8.019531 -7.171875 7.875 -7.515625 C 7.726562 -7.867188 7.5 -8.125 7.1875 -8.28125 C 6.875 -8.445312 6.46875 -8.53125 5.96875 -8.53125 C 5.101562 -8.53125 4.40625 -8.242188 3.875 -7.671875 C 3.34375 -7.097656 3.078125 -6.179688 3.078125 -4.921875 L 3.078125 0 Z M 1.671875 0 "/></g></g></g><g fill="#000000" fill-opacity="1"><g transform="translate(37.717817, 18.640603)"><g><path d="M 6.484375 -1.515625 L 6.921875 -0.5 C 6.703125 -0.28125 6.40625 -0.113281 6.03125 0 C 5.664062 0.125 5.269531 0.1875 4.84375 0.1875 C 3.007812 0.1875 2.09375 -0.738281 2.09375 -2.59375 L 2.09375 -8.421875 L 0.4375 -8.421875 L 0.4375 -9.578125 L 2.09375 -9.578125 L 2.09375 -11.609375 L 3.515625 -11.84375 L 3.515625 -9.578125 L 6.59375 -9.578125 L 6.59375 -8.421875 L 3.515625 -8.421875 L 3.515625 -2.734375 C 3.515625 -1.628906 3.992188 -1.078125 4.953125 -1.078125 C 5.472656 -1.078125 5.921875 -1.222656 6.296875 -1.515625 Z M 6.484375 -1.515625 "/></g></g></g><g fill="#000000" fill-opacity="1"><g transform="translate(45.013362, 18.640603)"><g><path d="M 9.125 -4.46875 L 2.546875 -4.46875 C 2.585938 -3.300781 2.863281 -2.441406 3.375 -1.890625 C 3.894531 -1.347656 4.609375 -1.078125 5.515625 -1.078125 C 6.191406 -1.078125 6.738281 -1.195312 7.15625 -1.4375 C 7.570312 -1.6875 7.898438 -2.070312 8.140625 -2.59375 L 8.328125 -2.59375 L 9.25 -2.046875 C 8.96875 -1.347656 8.519531 -0.800781 7.90625 -0.40625 C 7.300781 -0.0078125 6.503906 0.1875 5.515625 0.1875 C 4.585938 0.1875 3.789062 0.00390625 3.125 -0.359375 C 2.457031 -0.722656 1.941406 -1.273438 1.578125 -2.015625 C 1.222656 -2.765625 1.046875 -3.6875 1.046875 -4.78125 C 1.046875 -5.875 1.234375 -6.789062 1.609375 -7.53125 C 1.992188 -8.28125 2.515625 -8.835938 3.171875 -9.203125 C 3.828125 -9.578125 4.578125 -9.765625 5.421875 -9.765625 C 6.648438 -9.765625 7.609375 -9.414062 8.296875 -8.71875 C 8.984375 -8.03125 9.332031 -7.003906 9.34375 -5.640625 C 9.34375 -5.109375 9.332031 -4.75 9.3125 -4.5625 Z M 7.9375 -5.640625 C 7.914062 -6.660156 7.691406 -7.398438 7.265625 -7.859375 C 6.835938 -8.328125 6.222656 -8.5625 5.421875 -8.5625 C 4.585938 -8.5625 3.929688 -8.328125 3.453125 -7.859375 C 2.972656 -7.390625 2.679688 -6.648438 2.578125 -5.640625 Z M 7.9375 -5.640625 "/></g></g></g><g fill="#000000" fill-opacity="1"><g transform="translate(55.227127, 18.640603)"><g><path d="M 1.671875 0 L 1.671875 -9.578125 L 3.015625 -9.578125 L 3.015625 -8.078125 L 3.1875 -8.03125 C 3.507812 -8.59375 3.914062 -9.019531 4.40625 -9.3125 C 4.90625 -9.613281 5.507812 -9.765625 6.21875 -9.765625 C 7.375 -9.765625 8.207031 -9.46875 8.71875 -8.875 C 9.238281 -8.289062 9.5 -7.390625 9.5 -6.171875 L 9.5 0 L 8.09375 0 L 8.09375 -6.125 C 8.09375 -6.707031 8.019531 -7.171875 7.875 -7.515625 C 7.726562 -7.867188 7.5 -8.125 7.1875 -8.28125 C 6.875 -8.445312 6.46875 -8.53125 5.96875 -8.53125 C 5.101562 -8.53125 4.40625 -8.242188 3.875 -7.671875 C 3.34375 -7.097656 3.078125 -6.179688 3.078125 -4.921875 L 3.078125 0 Z M 1.671875 0 "/></g></g></g><g fill="#000000" fill-opacity="1"><g transform="translate(66.257297, 18.640603)"><g><path d="M 6.484375 -1.515625 L 6.921875 -0.5 C 6.703125 -0.28125 6.40625 -0.113281 6.03125 0 C 5.664062 0.125 5.269531 0.1875 4.84375 0.1875 C 3.007812 0.1875 2.09375 -0.738281 2.09375 -2.59375 L 2.09375 -8.421875 L 0.4375 -8.421875 L 0.4375 -9.578125 L 2.09375 -9.578125 L 2.09375 -11.609375 L 3.515625 -11.84375 L 3.515625 -9.578125 L 6.59375 -9.578125 L 6.59375 -8.421875 L 3.515625 -8.421875 L 3.515625 -2.734375 C 3.515625 -1.628906 3.992188 -1.078125 4.953125 -1.078125 C 5.472656 -1.078125 5.921875 -1.222656 6.296875 -1.515625 Z M 6.484375 -1.515625 "/></g></g></g><g fill="#000000" fill-opacity="1"><g transform="translate(73.552843, 18.640603)"><g><path d="M 9.125 -4.46875 L 2.546875 -4.46875 C 2.585938 -3.300781 2.863281 -2.441406 3.375 -1.890625 C 3.894531 -1.347656 4.609375 -1.078125 5.515625 -1.078125 C 6.191406 -1.078125 6.738281 -1.195312 7.15625 -1.4375 C 7.570312 -1.6875 7.898438 -2.070312 8.140625 -2.59375 L 8.328125 -2.59375 L 9.25 -2.046875 C 8.96875 -1.347656 8.519531 -0.800781 7.90625 -0.40625 C 7.300781 -0.0078125 6.503906 0.1875 5.515625 0.1875 C 4.585938 0.1875 3.789062 0.00390625 3.125 -0.359375 C 2.457031 -0.722656 1.941406 -1.273438 1.578125 -2.015625 C 1.222656 -2.765625 1.046875 -3.6875 1.046875 -4.78125 C 1.046875 -5.875 1.234375 -6.789062 1.609375 -7.53125 C 1.992188 -8.28125 2.515625 -8.835938 3.171875 -9.203125 C 3.828125 -9.578125 4.578125 -9.765625 5.421875 -9.765625 C 6.648438 -9.765625 7.609375 -9.414062 8.296875 -8.71875 C 8.984375 -8.03125 9.332031 -7.003906 9.34375 -5.640625 C 9.34375 -5.109375 9.332031 -4.75 9.3125 -4.5625 Z M 7.9375 -5.640625 C 7.914062 -6.660156 7.691406 -7.398438 7.265625 -7.859375 C 6.835938 -8.328125 6.222656 -8.5625 5.421875 -8.5625 C 4.585938 -8.5625 3.929688 -8.328125 3.453125 -7.859375 C 2.972656 -7.390625 2.679688 -6.648438 2.578125 -5.640625 Z M 7.9375 -5.640625 "/></g></g></g><g fill="#000000" fill-opacity="1"><g transform="translate(83.766607, 18.640603)"><g/></g></g><g fill="#000000" fill-opacity="1"><g transform="translate(88.126564, 18.640603)"><g><path d="M 2.375 -11.421875 C 2.070312 -11.421875 1.828125 -11.515625 1.640625 -11.703125 C 1.453125 -11.890625 1.359375 -12.128906 1.359375 -12.421875 C 1.359375 -12.710938 1.453125 -12.953125 1.640625 -13.140625 C 1.828125 -13.328125 2.070312 -13.421875 2.375 -13.421875 C 2.675781 -13.421875 2.921875 -13.328125 3.109375 -13.140625 C 3.296875 -12.953125 3.390625 -12.710938 3.390625 -12.421875 C 3.390625 -12.128906 3.296875 -11.890625 3.109375 -11.703125 C 2.921875 -11.515625 2.675781 -11.421875 2.375 -11.421875 Z M 1.671875 0 L 1.671875 -9.578125 L 3.078125 -9.578125 L 3.078125 0 Z M 1.671875 0 "/></g></g></g><g fill="#000000" fill-opacity="1"><g transform="translate(92.877357, 18.640603)"><g><path d="M 1.671875 0 L 1.671875 -9.578125 L 3.015625 -9.578125 L 3.015625 -8.078125 L 3.1875 -8.03125 C 3.507812 -8.59375 3.914062 -9.019531 4.40625 -9.3125 C 4.90625 -9.613281 5.507812 -9.765625 6.21875 -9.765625 C 7.375 -9.765625 8.207031 -9.46875 8.71875 -8.875 C 9.238281 -8.289062 9.5 -7.390625 9.5 -6.171875 L 9.5 0 L 8.09375 0 L 8.09375 -6.125 C 8.09375 -6.707031 8.019531 -7.171875 7.875 -7.515625 C 7.726562 -7.867188 7.5 -8.125 7.1875 -8.28125 C 6.875 -8.445312 6.46875 -8.53125 5.96875 -8.53125 C 5.101562 -8.53125 4.40625 -8.242188 3.875 -7.671875 C 3.34375 -7.097656 3.078125 -6.179688 3.078125 -4.921875 L 3.078125 0 Z M 1.671875 0 "/></g></g></g><g fill="#000000" fill-opacity="1"><g transform="translate(103.907521, 18.640603)"><g><path d="M 2.140625 0 L 2.140625 -8.421875 L 0.46875 -8.421875 L 0.46875 -9.578125 L 2.140625 -9.578125 C 2.035156 -9.992188 1.984375 -10.394531 1.984375 -10.78125 C 1.984375 -11.394531 2.113281 -11.914062 2.375 -12.34375 C 2.632812 -12.769531 3 -13.085938 3.46875 -13.296875 C 3.9375 -13.503906 4.476562 -13.609375 5.09375 -13.609375 C 6.050781 -13.609375 6.785156 -13.398438 7.296875 -12.984375 L 6.75 -11.984375 L 6.5625 -11.953125 C 6.1875 -12.253906 5.695312 -12.40625 5.09375 -12.40625 C 4.53125 -12.40625 4.101562 -12.257812 3.8125 -11.96875 C 3.53125 -11.675781 3.390625 -11.265625 3.390625 -10.734375 C 3.390625 -10.410156 3.441406 -10.023438 3.546875 -9.578125 L 6.59375 -9.578125 L 6.59375 -8.421875 L 3.546875 -8.421875 L 3.546875 0 Z M 2.140625 0 "/></g></g></g><g fill="#000000" fill-opacity="1"><g transform="translate(110.734074, 18.640603)"><g><path d="M 5.5 0.1875 C 4.59375 0.1875 3.804688 -0.00390625 3.140625 -0.390625 C 2.472656 -0.773438 1.957031 -1.335938 1.59375 -2.078125 C 1.226562 -2.816406 1.046875 -3.71875 1.046875 -4.78125 C 1.046875 -5.84375 1.226562 -6.742188 1.59375 -7.484375 C 1.957031 -8.234375 2.472656 -8.800781 3.140625 -9.1875 C 3.804688 -9.570312 4.59375 -9.765625 5.5 -9.765625 C 6.394531 -9.765625 7.175781 -9.570312 7.84375 -9.1875 C 8.519531 -8.800781 9.035156 -8.234375 9.390625 -7.484375 C 9.753906 -6.742188 9.9375 -5.84375 9.9375 -4.78125 C 9.9375 -3.71875 9.753906 -2.816406 9.390625 -2.078125 C 9.035156 -1.335938 8.519531 -0.773438 7.84375 -0.390625 C 7.175781 -0.00390625 6.394531 0.1875 5.5 0.1875 Z M 5.5 -1.078125 C 6.445312 -1.078125 7.175781 -1.378906 7.6875 -1.984375 C 8.195312 -2.585938 8.453125 -3.519531 8.453125 -4.78125 C 8.453125 -6.050781 8.195312 -6.984375 7.6875 -7.578125 C 7.175781 -8.179688 6.445312 -8.484375 5.5 -8.484375 C 4.539062 -8.484375 3.804688 -8.179688 3.296875 -7.578125 C 2.785156 -6.972656 2.53125 -6.039062 2.53125 -4.78125 C 2.53125 -3.519531 2.785156 -2.585938 3.296875 -1.984375 C 3.804688 -1.378906 4.539062 -1.078125 5.5 -1.078125 Z M 5.5 -1.078125 "/></g></g></g><g fill="#000000" fill-opacity="1"><g transform="translate(121.729509, 18.640603)"><g><path d="M 1.671875 0 L 1.671875 -9.578125 L 3.015625 -9.578125 L 3.015625 -8.078125 L 3.1875 -8.03125 C 3.632812 -9.113281 4.476562 -9.65625 5.71875 -9.65625 C 6.363281 -9.65625 6.851562 -9.539062 7.1875 -9.3125 L 6.8125 -8.109375 L 6.640625 -8.078125 C 6.285156 -8.253906 5.894531 -8.34375 5.46875 -8.34375 C 4.695312 -8.34375 4.101562 -8.054688 3.6875 -7.484375 C 3.28125 -6.910156 3.078125 -5.984375 3.078125 -4.703125 L 3.078125 0 Z M 1.671875 0 "/></g></g></g><g fill="#000000" fill-opacity="1"><g transform="translate(129.129265, 18.640603)"><g><path d="M 1.671875 0 L 1.671875 -9.578125 L 3.015625 -9.578125 L 3.015625 -8.15625 L 3.1875 -8.125 C 3.519531 -8.664062 3.914062 -9.070312 4.375 -9.34375 C 4.832031 -9.625 5.382812 -9.765625 6.03125 -9.765625 C 6.769531 -9.765625 7.34375 -9.625 7.75 -9.34375 C 8.15625 -9.0625 8.46875 -8.609375 8.6875 -7.984375 L 8.875 -7.984375 C 9.207031 -8.566406 9.613281 -9.007812 10.09375 -9.3125 C 10.570312 -9.613281 11.164062 -9.765625 11.875 -9.765625 C 12.863281 -9.765625 13.597656 -9.492188 14.078125 -8.953125 C 14.554688 -8.421875 14.796875 -7.613281 14.796875 -6.53125 L 14.796875 0 L 13.390625 0 L 13.390625 -6.5 C 13.390625 -7.1875 13.242188 -7.695312 12.953125 -8.03125 C 12.660156 -8.363281 12.1875 -8.53125 11.53125 -8.53125 C 10.769531 -8.53125 10.144531 -8.25 9.65625 -7.6875 C 9.175781 -7.132812 8.9375 -6.222656 8.9375 -4.953125 L 8.9375 0 L 7.53125 0 L 7.53125 -6.5 C 7.53125 -7.1875 7.382812 -7.695312 7.09375 -8.03125 C 6.800781 -8.363281 6.328125 -8.53125 5.671875 -8.53125 C 4.910156 -8.53125 4.285156 -8.257812 3.796875 -7.71875 C 3.316406 -7.175781 3.078125 -6.300781 3.078125 -5.09375 L 3.078125 0 Z M 1.671875 0 "/></g></g></g><g fill="#000000" fill-opacity="1"><g transform="translate(145.457392, 18.640603)"><g><path d="M 3.953125 0.1875 C 3.003906 0.1875 2.265625 -0.0546875 1.734375 -0.546875 C 1.210938 -1.046875 0.953125 -1.753906 0.953125 -2.671875 C 0.953125 -3.234375 1.066406 -3.707031 1.296875 -4.09375 C 1.535156 -4.488281 1.898438 -4.804688 2.390625 -5.046875 C 2.878906 -5.296875 3.519531 -5.488281 4.3125 -5.625 C 5.007812 -5.738281 5.535156 -5.867188 5.890625 -6.015625 C 6.253906 -6.160156 6.5 -6.320312 6.625 -6.5 C 6.75 -6.675781 6.8125 -6.90625 6.8125 -7.1875 C 6.8125 -7.613281 6.660156 -7.941406 6.359375 -8.171875 C 6.066406 -8.410156 5.59375 -8.53125 4.9375 -8.53125 C 4.3125 -8.53125 3.773438 -8.410156 3.328125 -8.171875 C 2.890625 -7.929688 2.488281 -7.570312 2.125 -7.09375 L 1.9375 -7.09375 L 1.25 -8.078125 C 1.65625 -8.585938 2.171875 -8.992188 2.796875 -9.296875 C 3.421875 -9.609375 4.132812 -9.765625 4.9375 -9.765625 C 6.0625 -9.765625 6.890625 -9.515625 7.421875 -9.015625 C 7.960938 -8.523438 8.234375 -7.84375 8.234375 -6.96875 L 8.234375 -1.890625 C 8.234375 -1.347656 8.457031 -1.078125 8.90625 -1.078125 C 9.0625 -1.078125 9.207031 -1.101562 9.34375 -1.15625 L 9.46875 -1.125 L 9.625 -0.140625 C 9.519531 -0.078125 9.378906 -0.03125 9.203125 0 C 9.035156 0.0390625 8.863281 0.0625 8.6875 0.0625 C 8.164062 0.0625 7.769531 -0.0507812 7.5 -0.28125 C 7.226562 -0.507812 7.054688 -0.847656 6.984375 -1.296875 L 6.796875 -1.3125 C 6.523438 -0.8125 6.15625 -0.4375 5.6875 -0.1875 C 5.226562 0.0625 4.648438 0.1875 3.953125 0.1875 Z M 4.265625 -0.953125 C 4.796875 -0.953125 5.253906 -1.070312 5.640625 -1.3125 C 6.035156 -1.5625 6.335938 -1.90625 6.546875 -2.34375 C 6.753906 -2.789062 6.859375 -3.304688 6.859375 -3.890625 L 6.859375 -5.109375 L 6.6875 -5.15625 C 6.476562 -5 6.21875 -4.867188 5.90625 -4.765625 C 5.601562 -4.671875 5.175781 -4.582031 4.625 -4.5 C 4.070312 -4.425781 3.628906 -4.3125 3.296875 -4.15625 C 2.972656 -4 2.738281 -3.796875 2.59375 -3.546875 C 2.457031 -3.304688 2.390625 -3.015625 2.390625 -2.671875 C 2.390625 -2.109375 2.554688 -1.679688 2.890625 -1.390625 C 3.222656 -1.097656 3.679688 -0.953125 4.265625 -0.953125 Z M 4.265625 -0.953125 "/></g></g></g><g fill="#000000" fill-opacity="1"><g transform="translate(155.367184, 18.640603)"><g><path d="M 4.96875 0.1875 C 4.195312 0.1875 3.515625 0.00390625 2.921875 -0.359375 C 2.335938 -0.734375 1.878906 -1.289062 1.546875 -2.03125 C 1.210938 -2.769531 1.046875 -3.6875 1.046875 -4.78125 C 1.046875 -5.875 1.21875 -6.789062 1.5625 -7.53125 C 1.914062 -8.28125 2.394531 -8.835938 3 -9.203125 C 3.613281 -9.578125 4.320312 -9.765625 5.125 -9.765625 C 5.769531 -9.765625 6.34375 -9.640625 6.84375 -9.390625 C 7.351562 -9.148438 7.789062 -8.757812 8.15625 -8.21875 L 8.34375 -8.25 L 8.34375 -13.421875 L 9.765625 -13.421875 L 9.765625 0 L 8.34375 0 L 8.34375 -1.390625 L 8.15625 -1.4375 C 7.84375 -0.957031 7.421875 -0.566406 6.890625 -0.265625 C 6.359375 0.0351562 5.71875 0.1875 4.96875 0.1875 Z M 5.40625 -1.078125 C 6.300781 -1.078125 7.015625 -1.382812 7.546875 -2 C 8.078125 -2.613281 8.34375 -3.539062 8.34375 -4.78125 C 8.34375 -6.03125 8.078125 -6.957031 7.546875 -7.5625 C 7.015625 -8.175781 6.300781 -8.484375 5.40625 -8.484375 C 4.488281 -8.484375 3.78125 -8.1875 3.28125 -7.59375 C 2.78125 -7 2.53125 -6.0625 2.53125 -4.78125 C 2.53125 -2.3125 3.488281 -1.078125 5.40625 -1.078125 Z M 5.40625 -1.078125 "/></g></g></g><g fill="#000000" fill-opacity="1"><g transform="translate(166.805566, 18.640603)"><g><path d="M 5.5 0.1875 C 4.59375 0.1875 3.804688 -0.00390625 3.140625 -0.390625 C 2.472656 -0.773438 1.957031 -1.335938 1.59375 -2.078125 C 1.226562 -2.816406 1.046875 -3.71875 1.046875 -4.78125 C 1.046875 -5.84375 1.226562 -6.742188 1.59375 -7.484375 C 1.957031 -8.234375 2.472656 -8.800781 3.140625 -9.1875 C 3.804688 -9.570312 4.59375 -9.765625 5.5 -9.765625 C 6.394531 -9.765625 7.175781 -9.570312 7.84375 -9.1875 C 8.519531 -8.800781 9.035156 -8.234375 9.390625 -7.484375 C 9.753906 -6.742188 9.9375 -5.84375 9.9375 -4.78125 C 9.9375 -3.71875 9.753906 -2.816406 9.390625 -2.078125 C 9.035156 -1.335938 8.519531 -0.773438 7.84375 -0.390625 C 7.175781 -0.00390625 6.394531 0.1875 5.5 0.1875 Z M 5.5 -1.078125 C 6.445312 -1.078125 7.175781 -1.378906 7.6875 -1.984375 C 8.195312 -2.585938 8.453125 -3.519531 8.453125 -4.78125 C 8.453125 -6.050781 8.195312 -6.984375 7.6875 -7.578125 C 7.175781 -8.179688 6.445312 -8.484375 5.5 -8.484375 C 4.539062 -8.484375 3.804688 -8.179688 3.296875 -7.578125 C 2.785156 -6.972656 2.53125 -6.039062 2.53125 -4.78125 C 2.53125 -3.519531 2.785156 -2.585938 3.296875 -1.984375 C 3.804688 -1.378906 4.539062 -1.078125 5.5 -1.078125 Z M 5.5 -1.078125 "/></g></g></g><g fill="#000000" fill-opacity="1"><g transform="translate(177.80099, 18.640603)"><g/></g></g><g fill="#000000" fill-opacity="1"><g transform="translate(182.160953, 18.640603)"><g><path d="M 4.359375 0.1875 C 3.765625 0.1875 3.207031 0.109375 2.6875 -0.046875 C 2.175781 -0.210938 1.742188 -0.429688 1.390625 -0.703125 C 1.046875 -0.984375 0.800781 -1.300781 0.65625 -1.65625 L 1.484375 -2.515625 L 1.671875 -2.515625 C 1.984375 -2.046875 2.359375 -1.6875 2.796875 -1.4375 C 3.234375 -1.195312 3.753906 -1.078125 4.359375 -1.078125 C 5.066406 -1.078125 5.601562 -1.210938 5.96875 -1.484375 C 6.34375 -1.765625 6.53125 -2.148438 6.53125 -2.640625 C 6.53125 -3.023438 6.414062 -3.335938 6.1875 -3.578125 C 5.96875 -3.828125 5.609375 -4.007812 5.109375 -4.125 L 3.5 -4.53125 C 2.632812 -4.738281 2.003906 -5.066406 1.609375 -5.515625 C 1.210938 -5.972656 1.015625 -6.535156 1.015625 -7.203125 C 1.015625 -7.722656 1.144531 -8.175781 1.40625 -8.5625 C 1.675781 -8.945312 2.0625 -9.242188 2.5625 -9.453125 C 3.0625 -9.660156 3.65625 -9.765625 4.34375 -9.765625 C 5.226562 -9.765625 5.921875 -9.640625 6.421875 -9.390625 C 6.929688 -9.140625 7.328125 -8.796875 7.609375 -8.359375 L 6.8125 -7.578125 L 6.640625 -7.578125 C 6.335938 -7.929688 6.003906 -8.1875 5.640625 -8.34375 C 5.273438 -8.5 4.84375 -8.578125 4.34375 -8.578125 C 3.71875 -8.578125 3.234375 -8.460938 2.890625 -8.234375 C 2.554688 -8.015625 2.390625 -7.691406 2.390625 -7.265625 C 2.390625 -6.867188 2.507812 -6.550781 2.75 -6.3125 C 2.988281 -6.082031 3.40625 -5.894531 4 -5.75 L 5.578125 -5.359375 C 6.410156 -5.171875 7.007812 -4.847656 7.375 -4.390625 C 7.75 -3.929688 7.9375 -3.359375 7.9375 -2.671875 C 7.9375 -2.109375 7.800781 -1.609375 7.53125 -1.171875 C 7.269531 -0.742188 6.867188 -0.410156 6.328125 -0.171875 C 5.796875 0.0664062 5.140625 0.1875 4.359375 0.1875 Z M 4.359375 0.1875 "/></g></g></g><g fill="#000000" fill-opacity="1"><g transform="translate(191.019818, 18.640603)"><g><path d="M 5.5 0.1875 C 4.59375 0.1875 3.804688 -0.00390625 3.140625 -0.390625 C 2.472656 -0.773438 1.957031 -1.335938 1.59375 -2.078125 C 1.226562 -2.816406 1.046875 -3.71875 1.046875 -4.78125 C 1.046875 -5.84375 1.226562 -6.742188 1.59375 -7.484375 C 1.957031 -8.234375 2.472656 -8.800781 3.140625 -9.1875 C 3.804688 -9.570312 4.59375 -9.765625 5.5 -9.765625 C 6.394531 -9.765625 7.175781 -9.570312 7.84375 -9.1875 C 8.519531 -8.800781 9.035156 -8.234375 9.390625 -7.484375 C 9.753906 -6.742188 9.9375 -5.84375 9.9375 -4.78125 C 9.9375 -3.71875 9.753906 -2.816406 9.390625 -2.078125 C 9.035156 -1.335938 8.519531 -0.773438 7.84375 -0.390625 C 7.175781 -0.00390625 6.394531 0.1875 5.5 0.1875 Z M 5.5 -1.078125 C 6.445312 -1.078125 7.175781 -1.378906 7.6875 -1.984375 C 8.195312 -2.585938 8.453125 -3.519531 8.453125 -4.78125 C 8.453125 -6.050781 8.195312 -6.984375 7.6875 -7.578125 C 7.175781 -8.179688 6.445312 -8.484375 5.5 -8.484375 C 4.539062 -8.484375 3.804688 -8.179688 3.296875 -7.578125 C 2.785156 -6.972656 2.53125 -6.039062 2.53125 -4.78125 C 2.53125 -3.519531 2.785156 -2.585938 3.296875 -1.984375 C 3.804688 -1.378906 4.539062 -1.078125 5.5 -1.078125 Z M 5.5 -1.078125 "/></g></g></g><g fill="#000000" fill-opacity="1"><g transform="translate(202.015266, 18.640603)"><g><path d="M 6.359375 0.1875 C 5.648438 0.1875 5.03125 0.0507812 4.5 -0.21875 C 3.976562 -0.5 3.566406 -0.863281 3.265625 -1.3125 L 3.078125 -1.28125 L 3.078125 0 L 1.671875 0 L 1.671875 -13.421875 L 3.078125 -13.421875 L 3.078125 -8.140625 L 3.265625 -8.109375 C 3.992188 -9.210938 5.050781 -9.765625 6.4375 -9.765625 C 7.226562 -9.765625 7.914062 -9.582031 8.5 -9.21875 C 9.09375 -8.851562 9.550781 -8.296875 9.875 -7.546875 C 10.207031 -6.804688 10.375 -5.882812 10.375 -4.78125 C 10.375 -3.695312 10.203125 -2.78125 9.859375 -2.03125 C 9.515625 -1.289062 9.039062 -0.734375 8.4375 -0.359375 C 7.832031 0.00390625 7.140625 0.1875 6.359375 0.1875 Z M 6.03125 -1.078125 C 7.9375 -1.078125 8.890625 -2.3125 8.890625 -4.78125 C 8.890625 -6.0625 8.640625 -7 8.140625 -7.59375 C 7.640625 -8.1875 6.9375 -8.484375 6.03125 -8.484375 C 5.132812 -8.484375 4.414062 -8.175781 3.875 -7.5625 C 3.34375 -6.957031 3.078125 -6.03125 3.078125 -4.78125 C 3.078125 -3.539062 3.34375 -2.613281 3.875 -2 C 4.414062 -1.382812 5.132812 -1.078125 6.03125 -1.078125 Z M 6.03125 -1.078125 "/></g></g></g><g fill="#000000" fill-opacity="1"><g transform="translate(213.444943, 18.640603)"><g><path d="M 1.671875 0 L 1.671875 -9.578125 L 3.015625 -9.578125 L 3.015625 -8.078125 L 3.1875 -8.03125 C 3.632812 -9.113281 4.476562 -9.65625 5.71875 -9.65625 C 6.363281 -9.65625 6.851562 -9.539062 7.1875 -9.3125 L 6.8125 -8.109375 L 6.640625 -8.078125 C 6.285156 -8.253906 5.894531 -8.34375 5.46875 -8.34375 C 4.695312 -8.34375 4.101562 -8.054688 3.6875 -7.484375 C 3.28125 -6.910156 3.078125 -5.984375 3.078125 -4.703125 L 3.078125 0 Z M 1.671875 0 "/></g></g></g><g fill="#000000" fill-opacity="1"><g transform="translate(220.844699, 18.640603)"><g><path d="M 1.671875 0 L 1.671875 -9.578125 L 3.015625 -9.578125 L 3.015625 -8.078125 L 3.1875 -8.03125 C 3.632812 -9.113281 4.476562 -9.65625 5.71875 -9.65625 C 6.363281 -9.65625 6.851562 -9.539062 7.1875 -9.3125 L 6.8125 -8.109375 L 6.640625 -8.078125 C 6.285156 -8.253906 5.894531 -8.34375 5.46875 -8.34375 C 4.695312 -8.34375 4.101562 -8.054688 3.6875 -7.484375 C 3.28125 -6.910156 3.078125 -5.984375 3.078125 -4.703125 L 3.078125 0 Z M 1.671875 0 "/></g></g></g><g fill="#000000" fill-opacity="1"><g transform="translate(228.244478, 18.640603)"><g><path d="M 9.125 -4.46875 L 2.546875 -4.46875 C 2.585938 -3.300781 2.863281 -2.441406 3.375 -1.890625 C 3.894531 -1.347656 4.609375 -1.078125 5.515625 -1.078125 C 6.191406 -1.078125 6.738281 -1.195312 7.15625 -1.4375 C 7.570312 -1.6875 7.898438 -2.070312 8.140625 -2.59375 L 8.328125 -2.59375 L 9.25 -2.046875 C 8.96875 -1.347656 8.519531 -0.800781 7.90625 -0.40625 C 7.300781 -0.0078125 6.503906 0.1875 5.515625 0.1875 C 4.585938 0.1875 3.789062 0.00390625 3.125 -0.359375 C 2.457031 -0.722656 1.941406 -1.273438 1.578125 -2.015625 C 1.222656 -2.765625 1.046875 -3.6875 1.046875 -4.78125 C 1.046875 -5.875 1.234375 -6.789062 1.609375 -7.53125 C 1.992188 -8.28125 2.515625 -8.835938 3.171875 -9.203125 C 3.828125 -9.578125 4.578125 -9.765625 5.421875 -9.765625 C 6.648438 -9.765625 7.609375 -9.414062 8.296875 -8.71875 C 8.984375 -8.03125 9.332031 -7.003906 9.34375 -5.640625 C 9.34375 -5.109375 9.332031 -4.75 9.3125 -4.5625 Z M 7.9375 -5.640625 C 7.914062 -6.660156 7.691406 -7.398438 7.265625 -7.859375 C 6.835938 -8.328125 6.222656 -8.5625 5.421875 -8.5625 C 4.585938 -8.5625 3.929688 -8.328125 3.453125 -7.859375 C 2.972656 -7.390625 2.679688 -6.648438 2.578125 -5.640625 Z M 7.9375 -5.640625 "/></g></g></g><g fill="#000000" fill-opacity="1"><g transform="translate(238.458243, 18.640603)"><g/></g></g><g fill="#000000" fill-opacity="1"><g transform="translate(242.818206, 18.640603)"><g><path d="M 1.671875 0 L 1.671875 -9.578125 L 3.015625 -9.578125 L 3.015625 -8.078125 L 3.1875 -8.03125 C 3.507812 -8.59375 3.914062 -9.019531 4.40625 -9.3125 C 4.90625 -9.613281 5.507812 -9.765625 6.21875 -9.765625 C 7.375 -9.765625 8.207031 -9.46875 8.71875 -8.875 C 9.238281 -8.289062 9.5 -7.390625 9.5 -6.171875 L 9.5 0 L 8.09375 0 L 8.09375 -6.125 C 8.09375 -6.707031 8.019531 -7.171875 7.875 -7.515625 C 7.726562 -7.867188 7.5 -8.125 7.1875 -8.28125 C 6.875 -8.445312 6.46875 -8.53125 5.96875 -8.53125 C 5.101562 -8.53125 4.40625 -8.242188 3.875 -7.671875 C 3.34375 -7.097656 3.078125 -6.179688 3.078125 -4.921875 L 3.078125 0 Z M 1.671875 0 "/></g></g></g><g fill="#000000" fill-opacity="1"><g transform="translate(253.848382, 18.640603)"><g><path d="M 4.734375 0.1875 C 3.648438 0.1875 2.84375 -0.0976562 2.3125 -0.671875 C 1.78125 -1.242188 1.515625 -2.082031 1.515625 -3.1875 L 1.515625 -9.578125 L 2.9375 -9.578125 L 2.9375 -3.234375 C 2.9375 -1.773438 3.617188 -1.046875 4.984375 -1.046875 C 5.847656 -1.046875 6.53125 -1.328125 7.03125 -1.890625 C 7.539062 -2.460938 7.796875 -3.382812 7.796875 -4.65625 L 7.796875 -9.578125 L 9.21875 -9.578125 L 9.21875 0 L 7.875 0 L 7.875 -1.5 L 7.6875 -1.546875 C 7.363281 -0.960938 6.96875 -0.523438 6.5 -0.234375 C 6.039062 0.046875 5.453125 0.1875 4.734375 0.1875 Z M 4.734375 0.1875 "/></g></g></g><g fill="#000000" fill-opacity="1"><g transform="translate(264.730902, 18.640603)"><g><path d="M 9.125 -4.46875 L 2.546875 -4.46875 C 2.585938 -3.300781 2.863281 -2.441406 3.375 -1.890625 C 3.894531 -1.347656 4.609375 -1.078125 5.515625 -1.078125 C 6.191406 -1.078125 6.738281 -1.195312 7.15625 -1.4375 C 7.570312 -1.6875 7.898438 -2.070312 8.140625 -2.59375 L 8.328125 -2.59375 L 9.25 -2.046875 C 8.96875 -1.347656 8.519531 -0.800781 7.90625 -0.40625 C 7.300781 -0.0078125 6.503906 0.1875 5.515625 0.1875 C 4.585938 0.1875 3.789062 0.00390625 3.125 -0.359375 C 2.457031 -0.722656 1.941406 -1.273438 1.578125 -2.015625 C 1.222656 -2.765625 1.046875 -3.6875 1.046875 -4.78125 C 1.046875 -5.875 1.234375 -6.789062 1.609375 -7.53125 C 1.992188 -8.28125 2.515625 -8.835938 3.171875 -9.203125 C 3.828125 -9.578125 4.578125 -9.765625 5.421875 -9.765625 C 6.648438 -9.765625 7.609375 -9.414062 8.296875 -8.71875 C 8.984375 -8.03125 9.332031 -7.003906 9.34375 -5.640625 C 9.34375 -5.109375 9.332031 -4.75 9.3125 -4.5625 Z M 7.9375 -5.640625 C 7.914062 -6.660156 7.691406 -7.398438 7.265625 -7.859375 C 6.835938 -8.328125 6.222656 -8.5625 5.421875 -8.5625 C 4.585938 -8.5625 3.929688 -8.328125 3.453125 -7.859375 C 2.972656 -7.390625 2.679688 -6.648438 2.578125 -5.640625 Z M 7.9375 -5.640625 "/></g></g></g><g fill="#000000" fill-opacity="1"><g transform="translate(274.944666, 18.640603)"><g><path d="M 4.359375 0.1875 C 3.765625 0.1875 3.207031 0.109375 2.6875 -0.046875 C 2.175781 -0.210938 1.742188 -0.429688 1.390625 -0.703125 C 1.046875 -0.984375 0.800781 -1.300781 0.65625 -1.65625 L 1.484375 -2.515625 L 1.671875 -2.515625 C 1.984375 -2.046875 2.359375 -1.6875 2.796875 -1.4375 C 3.234375 -1.195312 3.753906 -1.078125 4.359375 -1.078125 C 5.066406 -1.078125 5.601562 -1.210938 5.96875 -1.484375 C 6.34375 -1.765625 6.53125 -2.148438 6.53125 -2.640625 C 6.53125 -3.023438 6.414062 -3.335938 6.1875 -3.578125 C 5.96875 -3.828125 5.609375 -4.007812 5.109375 -4.125 L 3.5 -4.53125 C 2.632812 -4.738281 2.003906 -5.066406 1.609375 -5.515625 C 1.210938 -5.972656 1.015625 -6.535156 1.015625 -7.203125 C 1.015625 -7.722656 1.144531 -8.175781 1.40625 -8.5625 C 1.675781 -8.945312 2.0625 -9.242188 2.5625 -9.453125 C 3.0625 -9.660156 3.65625 -9.765625 4.34375 -9.765625 C 5.226562 -9.765625 5.921875 -9.640625 6.421875 -9.390625 C 6.929688 -9.140625 7.328125 -8.796875 7.609375 -8.359375 L 6.8125 -7.578125 L 6.640625 -7.578125 C 6.335938 -7.929688 6.003906 -8.1875 5.640625 -8.34375 C 5.273438 -8.5 4.84375 -8.578125 4.34375 -8.578125 C 3.71875 -8.578125 3.234375 -8.460938 2.890625 -8.234375 C 2.554688 -8.015625 2.390625 -7.691406 2.390625 -7.265625 C 2.390625 -6.867188 2.507812 -6.550781 2.75 -6.3125 C 2.988281 -6.082031 3.40625 -5.894531 4 -5.75 L 5.578125 -5.359375 C 6.410156 -5.171875 7.007812 -4.847656 7.375 -4.390625 C 7.75 -3.929688 7.9375 -3.359375 7.9375 -2.671875 C 7.9375 -2.109375 7.800781 -1.609375 7.53125 -1.171875 C 7.269531 -0.742188 6.867188 -0.410156 6.328125 -0.171875 C 5.796875 0.0664062 5.140625 0.1875 4.359375 0.1875 Z M 4.359375 0.1875 "/></g></g></g><g fill="#000000" fill-opacity="1"><g transform="translate(283.803531, 18.640603)"><g><path d="M 6.484375 -1.515625 L 6.921875 -0.5 C 6.703125 -0.28125 6.40625 -0.113281 6.03125 0 C 5.664062 0.125 5.269531 0.1875 4.84375 0.1875 C 3.007812 0.1875 2.09375 -0.738281 2.09375 -2.59375 L 2.09375 -8.421875 L 0.4375 -8.421875 L 0.4375 -9.578125 L 2.09375 -9.578125 L 2.09375 -11.609375 L 3.515625 -11.84375 L 3.515625 -9.578125 L 6.59375 -9.578125 L 6.59375 -8.421875 L 3.515625 -8.421875 L 3.515625 -2.734375 C 3.515625 -1.628906 3.992188 -1.078125 4.953125 -1.078125 C 5.472656 -1.078125 5.921875 -1.222656 6.296875 -1.515625 Z M 6.484375 -1.515625 "/></g></g></g><g fill="#000000" fill-opacity="1"><g transform="translate(291.099077, 18.640603)"><g><path d="M 1.671875 0 L 1.671875 -9.578125 L 3.015625 -9.578125 L 3.015625 -8.078125 L 3.1875 -8.03125 C 3.632812 -9.113281 4.476562 -9.65625 5.71875 -9.65625 C 6.363281 -9.65625 6.851562 -9.539062 7.1875 -9.3125 L 6.8125 -8.109375 L 6.640625 -8.078125 C 6.285156 -8.253906 5.894531 -8.34375 5.46875 -8.34375 C 4.695312 -8.34375 4.101562 -8.054688 3.6875 -7.484375 C 3.28125 -6.910156 3.078125 -5.984375 3.078125 -4.703125 L 3.078125 0 Z M 1.671875 0 "/></g></g></g><g fill="#000000" fill-opacity="1"><g transform="translate(298.498857, 18.640603)"><g><path d="M 5.5 0.1875 C 4.59375 0.1875 3.804688 -0.00390625 3.140625 -0.390625 C 2.472656 -0.773438 1.957031 -1.335938 1.59375 -2.078125 C 1.226562 -2.816406 1.046875 -3.71875 1.046875 -4.78125 C 1.046875 -5.84375 1.226562 -6.742188 1.59375 -7.484375 C 1.957031 -8.234375 2.472656 -8.800781 3.140625 -9.1875 C 3.804688 -9.570312 4.59375 -9.765625 5.5 -9.765625 C 6.394531 -9.765625 7.175781 -9.570312 7.84375 -9.1875 C 8.519531 -8.800781 9.035156 -8.234375 9.390625 -7.484375 C 9.753906 -6.742188 9.9375 -5.84375 9.9375 -4.78125 C 9.9375 -3.71875 9.753906 -2.816406 9.390625 -2.078125 C 9.035156 -1.335938 8.519531 -0.773438 7.84375 -0.390625 C 7.175781 -0.00390625 6.394531 0.1875 5.5 0.1875 Z M 5.5 -1.078125 C 6.445312 -1.078125 7.175781 -1.378906 7.6875 -1.984375 C 8.195312 -2.585938 8.453125 -3.519531 8.453125 -4.78125 C 8.453125 -6.050781 8.195312 -6.984375 7.6875 -7.578125 C 7.175781 -8.179688 6.445312 -8.484375 5.5 -8.484375 C 4.539062 -8.484375 3.804688 -8.179688 3.296875 -7.578125 C 2.785156 -6.972656 2.53125 -6.039062 2.53125 -4.78125 C 2.53125 -3.519531 2.785156 -2.585938 3.296875 -1.984375 C 3.804688 -1.378906 4.539062 -1.078125 5.5 -1.078125 Z M 5.5 -1.078125 "/></g></g></g><g fill="#000000" fill-opacity="1"><g transform="translate(309.49428, 18.640603)"><g><path d="M 4.359375 0.1875 C 3.765625 0.1875 3.207031 0.109375 2.6875 -0.046875 C 2.175781 -0.210938 1.742188 -0.429688 1.390625 -0.703125 C 1.046875 -0.984375 0.800781 -1.300781 0.65625 -1.65625 L 1.484375 -2.515625 L 1.671875 -2.515625 C 1.984375 -2.046875 2.359375 -1.6875 2.796875 -1.4375 C 3.234375 -1.195312 3.753906 -1.078125 4.359375 -1.078125 C 5.066406 -1.078125 5.601562 -1.210938 5.96875 -1.484375 C 6.34375 -1.765625 6.53125 -2.148438 6.53125 -2.640625 C 6.53125 -3.023438 6.414062 -3.335938 6.1875 -3.578125 C 5.96875 -3.828125 5.609375 -4.007812 5.109375 -4.125 L 3.5 -4.53125 C 2.632812 -4.738281 2.003906 -5.066406 1.609375 -5.515625 C 1.210938 -5.972656 1.015625 -6.535156 1.015625 -7.203125 C 1.015625 -7.722656 1.144531 -8.175781 1.40625 -8.5625 C 1.675781 -8.945312 2.0625 -9.242188 2.5625 -9.453125 C 3.0625 -9.660156 3.65625 -9.765625 4.34375 -9.765625 C 5.226562 -9.765625 5.921875 -9.640625 6.421875 -9.390625 C 6.929688 -9.140625 7.328125 -8.796875 7.609375 -8.359375 L 6.8125 -7.578125 L 6.640625 -7.578125 C 6.335938 -7.929688 6.003906 -8.1875 5.640625 -8.34375 C 5.273438 -8.5 4.84375 -8.578125 4.34375 -8.578125 C 3.71875 -8.578125 3.234375 -8.460938 2.890625 -8.234375 C 2.554688 -8.015625 2.390625 -7.691406 2.390625 -7.265625 C 2.390625 -6.867188 2.507812 -6.550781 2.75 -6.3125 C 2.988281 -6.082031 3.40625 -5.894531 4 -5.75 L 5.578125 -5.359375 C 6.410156 -5.171875 7.007812 -4.847656 7.375 -4.390625 C 7.75 -3.929688 7.9375 -3.359375 7.9375 -2.671875 C 7.9375 -2.109375 7.800781 -1.609375 7.53125 -1.171875 C 7.269531 -0.742188 6.867188 -0.410156 6.328125 -0.171875 C 5.796875 0.0664062 5.140625 0.1875 4.359375 0.1875 Z M 4.359375 0.1875 "/></g></g></g><g fill="#000000" fill-opacity="1"><g transform="translate(318.35317, 18.640603)"><g/></g></g><g fill="#000000" fill-opacity="1"><g transform="translate(322.713109, 18.640603)"><g><path d="M 1.671875 3.875 L 1.671875 -9.578125 L 3.078125 -9.578125 L 3.078125 -8.140625 L 3.265625 -8.109375 C 3.972656 -9.210938 5.019531 -9.765625 6.40625 -9.765625 C 7.195312 -9.765625 7.890625 -9.582031 8.484375 -9.21875 C 9.085938 -8.851562 9.550781 -8.296875 9.875 -7.546875 C 10.207031 -6.804688 10.375 -5.882812 10.375 -4.78125 C 10.375 -3.6875 10.195312 -2.769531 9.84375 -2.03125 C 9.5 -1.289062 9.019531 -0.734375 8.40625 -0.359375 C 7.800781 0.00390625 7.097656 0.1875 6.296875 0.1875 C 5.648438 0.1875 5.070312 0.0703125 4.5625 -0.15625 C 4.0625 -0.382812 3.628906 -0.753906 3.265625 -1.265625 L 3.078125 -1.234375 L 3.078125 3.875 Z M 5.984375 -1.078125 C 7.921875 -1.078125 8.890625 -2.3125 8.890625 -4.78125 C 8.890625 -7.25 7.921875 -8.484375 5.984375 -8.484375 C 5.410156 -8.484375 4.90625 -8.351562 4.46875 -8.09375 C 4.039062 -7.832031 3.703125 -7.425781 3.453125 -6.875 C 3.203125 -6.320312 3.078125 -5.625 3.078125 -4.78125 C 3.078125 -3.945312 3.203125 -3.25 3.453125 -2.6875 C 3.703125 -2.132812 4.039062 -1.726562 4.46875 -1.46875 C 4.90625 -1.207031 5.410156 -1.078125 5.984375 -1.078125 Z M 5.984375 -1.078125 "/></g></g></g><g fill="#000000" fill-opacity="1"><g transform="translate(334.142809, 18.640603)"><g><path d="M 1.671875 0 L 1.671875 -9.578125 L 3.015625 -9.578125 L 3.015625 -8.078125 L 3.1875 -8.03125 C 3.632812 -9.113281 4.476562 -9.65625 5.71875 -9.65625 C 6.363281 -9.65625 6.851562 -9.539062 7.1875 -9.3125 L 6.8125 -8.109375 L 6.640625 -8.078125 C 6.285156 -8.253906 5.894531 -8.34375 5.46875 -8.34375 C 4.695312 -8.34375 4.101562 -8.054688 3.6875 -7.484375 C 3.28125 -6.910156 3.078125 -5.984375 3.078125 -4.703125 L 3.078125 0 Z M 1.671875 0 "/></g></g></g><g fill="#000000" fill-opacity="1"><g transform="translate(341.542565, 18.640603)"><g><path d="M 5.5 0.1875 C 4.59375 0.1875 3.804688 -0.00390625 3.140625 -0.390625 C 2.472656 -0.773438 1.957031 -1.335938 1.59375 -2.078125 C 1.226562 -2.816406 1.046875 -3.71875 1.046875 -4.78125 C 1.046875 -5.84375 1.226562 -6.742188 1.59375 -7.484375 C 1.957031 -8.234375 2.472656 -8.800781 3.140625 -9.1875 C 3.804688 -9.570312 4.59375 -9.765625 5.5 -9.765625 C 6.394531 -9.765625 7.175781 -9.570312 7.84375 -9.1875 C 8.519531 -8.800781 9.035156 -8.234375 9.390625 -7.484375 C 9.753906 -6.742188 9.9375 -5.84375 9.9375 -4.78125 C 9.9375 -3.71875 9.753906 -2.816406 9.390625 -2.078125 C 9.035156 -1.335938 8.519531 -0.773438 7.84375 -0.390625 C 7.175781 -0.00390625 6.394531 0.1875 5.5 0.1875 Z M 5.5 -1.078125 C 6.445312 -1.078125 7.175781 -1.378906 7.6875 -1.984375 C 8.195312 -2.585938 8.453125 -3.519531 8.453125 -4.78125 C 8.453125 -6.050781 8.195312 -6.984375 7.6875 -7.578125 C 7.175781 -8.179688 6.445312 -8.484375 5.5 -8.484375 C 4.539062 -8.484375 3.804688 -8.179688 3.296875 -7.578125 C 2.785156 -6.972656 2.53125 -6.039062 2.53125 -4.78125 C 2.53125 -3.519531 2.785156 -2.585938 3.296875 -1.984375 C 3.804688 -1.378906 4.539062 -1.078125 5.5 -1.078125 Z M 5.5 -1.078125 "/></g></g></g><g fill="#000000" fill-opacity="1"><g transform="translate(352.538013, 18.640603)"><g><path d="M 2 0 L 0.4375 0 L 3.390625 -4.96875 L 0.578125 -9.578125 L 2.171875 -9.578125 L 4.390625 -5.890625 L 4.59375 -5.890625 L 6.8125 -9.578125 L 8.34375 -9.578125 L 5.59375 -4.96875 L 8.484375 0 L 6.890625 0 L 4.53125 -4.046875 L 4.328125 -4.046875 Z M 2 0 "/></g></g></g><g fill="#000000" fill-opacity="1"><g transform="translate(361.466359, 18.640603)"><g><path d="M 2.375 -11.421875 C 2.070312 -11.421875 1.828125 -11.515625 1.640625 -11.703125 C 1.453125 -11.890625 1.359375 -12.128906 1.359375 -12.421875 C 1.359375 -12.710938 1.453125 -12.953125 1.640625 -13.140625 C 1.828125 -13.328125 2.070312 -13.421875 2.375 -13.421875 C 2.675781 -13.421875 2.921875 -13.328125 3.109375 -13.140625 C 3.296875 -12.953125 3.390625 -12.710938 3.390625 -12.421875 C 3.390625 -12.128906 3.296875 -11.890625 3.109375 -11.703125 C 2.921875 -11.515625 2.675781 -11.421875 2.375 -11.421875 Z M 1.671875 0 L 1.671875 -9.578125 L 3.078125 -9.578125 L 3.078125 0 Z M 1.671875 0 "/></g></g></g><g fill="#000000" fill-opacity="1"><g transform="translate(366.217152, 18.640603)"><g><path d="M 1.671875 0 L 1.671875 -9.578125 L 3.015625 -9.578125 L 3.015625 -8.15625 L 3.1875 -8.125 C 3.519531 -8.664062 3.914062 -9.070312 4.375 -9.34375 C 4.832031 -9.625 5.382812 -9.765625 6.03125 -9.765625 C 6.769531 -9.765625 7.34375 -9.625 7.75 -9.34375 C 8.15625 -9.0625 8.46875 -8.609375 8.6875 -7.984375 L 8.875 -7.984375 C 9.207031 -8.566406 9.613281 -9.007812 10.09375 -9.3125 C 10.570312 -9.613281 11.164062 -9.765625 11.875 -9.765625 C 12.863281 -9.765625 13.597656 -9.492188 14.078125 -8.953125 C 14.554688 -8.421875 14.796875 -7.613281 14.796875 -6.53125 L 14.796875 0 L 13.390625 0 L 13.390625 -6.5 C 13.390625 -7.1875 13.242188 -7.695312 12.953125 -8.03125 C 12.660156 -8.363281 12.1875 -8.53125 11.53125 -8.53125 C 10.769531 -8.53125 10.144531 -8.25 9.65625 -7.6875 C 9.175781 -7.132812 8.9375 -6.222656 8.9375 -4.953125 L 8.9375 0 L 7.53125 0 L 7.53125 -6.5 C 7.53125 -7.1875 7.382812 -7.695312 7.09375 -8.03125 C 6.800781 -8.363281 6.328125 -8.53125 5.671875 -8.53125 C 4.910156 -8.53125 4.285156 -8.257812 3.796875 -7.71875 C 3.316406 -7.175781 3.078125 -6.300781 3.078125 -5.09375 L 3.078125 0 Z M 1.671875 0 "/></g></g></g><g fill="#000000" fill-opacity="1"><g transform="translate(382.545279, 18.640603)"><g><path d="M 5.5 0.1875 C 4.59375 0.1875 3.804688 -0.00390625 3.140625 -0.390625 C 2.472656 -0.773438 1.957031 -1.335938 1.59375 -2.078125 C 1.226562 -2.816406 1.046875 -3.71875 1.046875 -4.78125 C 1.046875 -5.84375 1.226562 -6.742188 1.59375 -7.484375 C 1.957031 -8.234375 2.472656 -8.800781 3.140625 -9.1875 C 3.804688 -9.570312 4.59375 -9.765625 5.5 -9.765625 C 6.394531 -9.765625 7.175781 -9.570312 7.84375 -9.1875 C 8.519531 -8.800781 9.035156 -8.234375 9.390625 -7.484375 C 9.753906 -6.742188 9.9375 -5.84375 9.9375 -4.78125 C 9.9375 -3.71875 9.753906 -2.816406 9.390625 -2.078125 C 9.035156 -1.335938 8.519531 -0.773438 7.84375 -0.390625 C 7.175781 -0.00390625 6.394531 0.1875 5.5 0.1875 Z M 5.5 -1.078125 C 6.445312 -1.078125 7.175781 -1.378906 7.6875 -1.984375 C 8.195312 -2.585938 8.453125 -3.519531 8.453125 -4.78125 C 8.453125 -6.050781 8.195312 -6.984375 7.6875 -7.578125 C 7.175781 -8.179688 6.445312 -8.484375 5.5 -8.484375 C 4.539062 -8.484375 3.804688 -8.179688 3.296875 -7.578125 C 2.785156 -6.972656 2.53125 -6.039062 2.53125 -4.78125 C 2.53125 -3.519531 2.785156 -2.585938 3.296875 -1.984375 C 3.804688 -1.378906 4.539062 -1.078125 5.5 -1.078125 Z M 5.5 -1.078125 "/></g></g></g><g fill="#000000" fill-opacity="1"><g transform="translate(393.540702, 18.640603)"><g><path d="M 4.359375 0.1875 C 3.765625 0.1875 3.207031 0.109375 2.6875 -0.046875 C 2.175781 -0.210938 1.742188 -0.429688 1.390625 -0.703125 C 1.046875 -0.984375 0.800781 -1.300781 0.65625 -1.65625 L 1.484375 -2.515625 L 1.671875 -2.515625 C 1.984375 -2.046875 2.359375 -1.6875 2.796875 -1.4375 C 3.234375 -1.195312 3.753906 -1.078125 4.359375 -1.078125 C 5.066406 -1.078125 5.601562 -1.210938 5.96875 -1.484375 C 6.34375 -1.765625 6.53125 -2.148438 6.53125 -2.640625 C 6.53125 -3.023438 6.414062 -3.335938 6.1875 -3.578125 C 5.96875 -3.828125 5.609375 -4.007812 5.109375 -4.125 L 3.5 -4.53125 C 2.632812 -4.738281 2.003906 -5.066406 1.609375 -5.515625 C 1.210938 -5.972656 1.015625 -6.535156 1.015625 -7.203125 C 1.015625 -7.722656 1.144531 -8.175781 1.40625 -8.5625 C 1.675781 -8.945312 2.0625 -9.242188 2.5625 -9.453125 C 3.0625 -9.660156 3.65625 -9.765625 4.34375 -9.765625 C 5.226562 -9.765625 5.921875 -9.640625 6.421875 -9.390625 C 6.929688 -9.140625 7.328125 -8.796875 7.609375 -8.359375 L 6.8125 -7.578125 L 6.640625 -7.578125 C 6.335938 -7.929688 6.003906 -8.1875 5.640625 -8.34375 C 5.273438 -8.5 4.84375 -8.578125 4.34375 -8.578125 C 3.71875 -8.578125 3.234375 -8.460938 2.890625 -8.234375 C 2.554688 -8.015625 2.390625 -7.691406 2.390625 -7.265625 C 2.390625 -6.867188 2.507812 -6.550781 2.75 -6.3125 C 2.988281 -6.082031 3.40625 -5.894531 4 -5.75 L 5.578125 -5.359375 C 6.410156 -5.171875 7.007812 -4.847656 7.375 -4.390625 C 7.75 -3.929688 7.9375 -3.359375 7.9375 -2.671875 C 7.9375 -2.109375 7.800781 -1.609375 7.53125 -1.171875 C 7.269531 -0.742188 6.867188 -0.410156 6.328125 -0.171875 C 5.796875 0.0664062 5.140625 0.1875 4.359375 0.1875 Z M 4.359375 0.1875 "/></g></g></g><g fill="#000000" fill-opacity="1"><g transform="translate(108.461225, 43.362469)"><g><path d="M 9.125 -4.46875 L 2.546875 -4.46875 C 2.585938 -3.300781 2.863281 -2.441406 3.375 -1.890625 C 3.894531 -1.347656 4.609375 -1.078125 5.515625 -1.078125 C 6.191406 -1.078125 6.738281 -1.195312 7.15625 -1.4375 C 7.570312 -1.6875 7.898438 -2.070312 8.140625 -2.59375 L 8.328125 -2.59375 L 9.25 -2.046875 C 8.96875 -1.347656 8.519531 -0.800781 7.90625 -0.40625 C 7.300781 -0.0078125 6.503906 0.1875 5.515625 0.1875 C 4.585938 0.1875 3.789062 0.00390625 3.125 -0.359375 C 2.457031 -0.722656 1.941406 -1.273438 1.578125 -2.015625 C 1.222656 -2.765625 1.046875 -3.6875 1.046875 -4.78125 C 1.046875 -5.875 1.234375 -6.789062 1.609375 -7.53125 C 1.992188 -8.28125 2.515625 -8.835938 3.171875 -9.203125 C 3.828125 -9.578125 4.578125 -9.765625 5.421875 -9.765625 C 6.648438 -9.765625 7.609375 -9.414062 8.296875 -8.71875 C 8.984375 -8.03125 9.332031 -7.003906 9.34375 -5.640625 C 9.34375 -5.109375 9.332031 -4.75 9.3125 -4.5625 Z M 7.9375 -5.640625 C 7.914062 -6.660156 7.691406 -7.398438 7.265625 -7.859375 C 6.835938 -8.328125 6.222656 -8.5625 5.421875 -8.5625 C 4.585938 -8.5625 3.929688 -8.328125 3.453125 -7.859375 C 2.972656 -7.390625 2.679688 -6.648438 2.578125 -5.640625 Z M 7.9375 -5.640625 "/></g></g></g><g fill="#000000" fill-opacity="1"><g transform="translate(118.674989, 43.362469)"><g><path d="M 6.0625 0 L 4.109375 0 L 0.46875 -9.578125 L 2 -9.578125 L 5.015625 -1.609375 L 5.203125 -1.609375 L 8.203125 -9.578125 L 9.6875 -9.578125 Z M 6.0625 0 "/></g></g></g><g fill="#000000" fill-opacity="1"><g transform="translate(128.82796, 43.362469)"><g><path d="M 9.125 -4.46875 L 2.546875 -4.46875 C 2.585938 -3.300781 2.863281 -2.441406 3.375 -1.890625 C 3.894531 -1.347656 4.609375 -1.078125 5.515625 -1.078125 C 6.191406 -1.078125 6.738281 -1.195312 7.15625 -1.4375 C 7.570312 -1.6875 7.898438 -2.070312 8.140625 -2.59375 L 8.328125 -2.59375 L 9.25 -2.046875 C 8.96875 -1.347656 8.519531 -0.800781 7.90625 -0.40625 C 7.300781 -0.0078125 6.503906 0.1875 5.515625 0.1875 C 4.585938 0.1875 3.789062 0.00390625 3.125 -0.359375 C 2.457031 -0.722656 1.941406 -1.273438 1.578125 -2.015625 C 1.222656 -2.765625 1.046875 -3.6875 1.046875 -4.78125 C 1.046875 -5.875 1.234375 -6.789062 1.609375 -7.53125 C 1.992188 -8.28125 2.515625 -8.835938 3.171875 -9.203125 C 3.828125 -9.578125 4.578125 -9.765625 5.421875 -9.765625 C 6.648438 -9.765625 7.609375 -9.414062 8.296875 -8.71875 C 8.984375 -8.03125 9.332031 -7.003906 9.34375 -5.640625 C 9.34375 -5.109375 9.332031 -4.75 9.3125 -4.5625 Z M 7.9375 -5.640625 C 7.914062 -6.660156 7.691406 -7.398438 7.265625 -7.859375 C 6.835938 -8.328125 6.222656 -8.5625 5.421875 -8.5625 C 4.585938 -8.5625 3.929688 -8.328125 3.453125 -7.859375 C 2.972656 -7.390625 2.679688 -6.648438 2.578125 -5.640625 Z M 7.9375 -5.640625 "/></g></g></g><g fill="#000000" fill-opacity="1"><g transform="translate(139.041724, 43.362469)"><g><path d="M 1.671875 0 L 1.671875 -9.578125 L 3.015625 -9.578125 L 3.015625 -8.078125 L 3.1875 -8.03125 C 3.507812 -8.59375 3.914062 -9.019531 4.40625 -9.3125 C 4.90625 -9.613281 5.507812 -9.765625 6.21875 -9.765625 C 7.375 -9.765625 8.207031 -9.46875 8.71875 -8.875 C 9.238281 -8.289062 9.5 -7.390625 9.5 -6.171875 L 9.5 0 L 8.09375 0 L 8.09375 -6.125 C 8.09375 -6.707031 8.019531 -7.171875 7.875 -7.515625 C 7.726562 -7.867188 7.5 -8.125 7.1875 -8.28125 C 6.875 -8.445312 6.46875 -8.53125 5.96875 -8.53125 C 5.101562 -8.53125 4.40625 -8.242188 3.875 -7.671875 C 3.34375 -7.097656 3.078125 -6.179688 3.078125 -4.921875 L 3.078125 0 Z M 1.671875 0 "/></g></g></g><g fill="#000000" fill-opacity="1"><g transform="translate(150.071894, 43.362469)"><g><path d="M 6.484375 -1.515625 L 6.921875 -0.5 C 6.703125 -0.28125 6.40625 -0.113281 6.03125 0 C 5.664062 0.125 5.269531 0.1875 4.84375 0.1875 C 3.007812 0.1875 2.09375 -0.738281 2.09375 -2.59375 L 2.09375 -8.421875 L 0.4375 -8.421875 L 0.4375 -9.578125 L 2.09375 -9.578125 L 2.09375 -11.609375 L 3.515625 -11.84375 L 3.515625 -9.578125 L 6.59375 -9.578125 L 6.59375 -8.421875 L 3.515625 -8.421875 L 3.515625 -2.734375 C 3.515625 -1.628906 3.992188 -1.078125 4.953125 -1.078125 C 5.472656 -1.078125 5.921875 -1.222656 6.296875 -1.515625 Z M 6.484375 -1.515625 "/></g></g></g><g fill="#000000" fill-opacity="1"><g transform="translate(157.36744, 43.362469)"><g><path d="M 5.5 0.1875 C 4.59375 0.1875 3.804688 -0.00390625 3.140625 -0.390625 C 2.472656 -0.773438 1.957031 -1.335938 1.59375 -2.078125 C 1.226562 -2.816406 1.046875 -3.71875 1.046875 -4.78125 C 1.046875 -5.84375 1.226562 -6.742188 1.59375 -7.484375 C 1.957031 -8.234375 2.472656 -8.800781 3.140625 -9.1875 C 3.804688 -9.570312 4.59375 -9.765625 5.5 -9.765625 C 6.394531 -9.765625 7.175781 -9.570312 7.84375 -9.1875 C 8.519531 -8.800781 9.035156 -8.234375 9.390625 -7.484375 C 9.753906 -6.742188 9.9375 -5.84375 9.9375 -4.78125 C 9.9375 -3.71875 9.753906 -2.816406 9.390625 -2.078125 C 9.035156 -1.335938 8.519531 -0.773438 7.84375 -0.390625 C 7.175781 -0.00390625 6.394531 0.1875 5.5 0.1875 Z M 5.5 -1.078125 C 6.445312 -1.078125 7.175781 -1.378906 7.6875 -1.984375 C 8.195312 -2.585938 8.453125 -3.519531 8.453125 -4.78125 C 8.453125 -6.050781 8.195312 -6.984375 7.6875 -7.578125 C 7.175781 -8.179688 6.445312 -8.484375 5.5 -8.484375 C 4.539062 -8.484375 3.804688 -8.179688 3.296875 -7.578125 C 2.785156 -6.972656 2.53125 -6.039062 2.53125 -4.78125 C 2.53125 -3.519531 2.785156 -2.585938 3.296875 -1.984375 C 3.804688 -1.378906 4.539062 -1.078125 5.5 -1.078125 Z M 5.5 -1.078125 "/></g></g></g><g fill="#000000" fill-opacity="1"><g transform="translate(168.36287, 43.362469)"><g><path d="M 4.359375 0.1875 C 3.765625 0.1875 3.207031 0.109375 2.6875 -0.046875 C 2.175781 -0.210938 1.742188 -0.429688 1.390625 -0.703125 C 1.046875 -0.984375 0.800781 -1.300781 0.65625 -1.65625 L 1.484375 -2.515625 L 1.671875 -2.515625 C 1.984375 -2.046875 2.359375 -1.6875 2.796875 -1.4375 C 3.234375 -1.195312 3.753906 -1.078125 4.359375 -1.078125 C 5.066406 -1.078125 5.601562 -1.210938 5.96875 -1.484375 C 6.34375 -1.765625 6.53125 -2.148438 6.53125 -2.640625 C 6.53125 -3.023438 6.414062 -3.335938 6.1875 -3.578125 C 5.96875 -3.828125 5.609375 -4.007812 5.109375 -4.125 L 3.5 -4.53125 C 2.632812 -4.738281 2.003906 -5.066406 1.609375 -5.515625 C 1.210938 -5.972656 1.015625 -6.535156 1.015625 -7.203125 C 1.015625 -7.722656 1.144531 -8.175781 1.40625 -8.5625 C 1.675781 -8.945312 2.0625 -9.242188 2.5625 -9.453125 C 3.0625 -9.660156 3.65625 -9.765625 4.34375 -9.765625 C 5.226562 -9.765625 5.921875 -9.640625 6.421875 -9.390625 C 6.929688 -9.140625 7.328125 -8.796875 7.609375 -8.359375 L 6.8125 -7.578125 L 6.640625 -7.578125 C 6.335938 -7.929688 6.003906 -8.1875 5.640625 -8.34375 C 5.273438 -8.5 4.84375 -8.578125 4.34375 -8.578125 C 3.71875 -8.578125 3.234375 -8.460938 2.890625 -8.234375 C 2.554688 -8.015625 2.390625 -7.691406 2.390625 -7.265625 C 2.390625 -6.867188 2.507812 -6.550781 2.75 -6.3125 C 2.988281 -6.082031 3.40625 -5.894531 4 -5.75 L 5.578125 -5.359375 C 6.410156 -5.171875 7.007812 -4.847656 7.375 -4.390625 C 7.75 -3.929688 7.9375 -3.359375 7.9375 -2.671875 C 7.9375 -2.109375 7.800781 -1.609375 7.53125 -1.171875 C 7.269531 -0.742188 6.867188 -0.410156 6.328125 -0.171875 C 5.796875 0.0664062 5.140625 0.1875 4.359375 0.1875 Z M 4.359375 0.1875 "/></g></g></g><g fill="#000000" fill-opacity="1"><g transform="translate(177.221747, 43.362469)"><g/></g></g><g fill="#000000" fill-opacity="1"><g transform="translate(181.581704, 43.362469)"><g><path d="M 1.921875 4.0625 C 1.597656 4.0625 1.296875 4.03125 1.015625 3.96875 C 0.734375 3.914062 0.488281 3.84375 0.28125 3.75 L 0.546875 2.625 L 0.703125 2.578125 C 0.835938 2.648438 1.007812 2.707031 1.21875 2.75 C 1.425781 2.800781 1.640625 2.828125 1.859375 2.828125 C 2.253906 2.828125 2.578125 2.773438 2.828125 2.671875 C 3.085938 2.566406 3.304688 2.394531 3.484375 2.15625 C 3.671875 1.914062 3.84375 1.582031 4 1.15625 L 4.328125 0.21875 L 0.484375 -9.578125 L 2.015625 -9.578125 L 5.03125 -1.765625 L 5.1875 -1.765625 L 8.109375 -9.578125 L 9.5625 -9.578125 L 5.28125 1.5 C 5.039062 2.113281 4.769531 2.609375 4.46875 2.984375 C 4.164062 3.359375 3.804688 3.628906 3.390625 3.796875 C 2.984375 3.972656 2.492188 4.0625 1.921875 4.0625 Z M 1.921875 4.0625 "/></g></g></g><g fill="#000000" fill-opacity="1"><g transform="translate(191.682564, 43.362469)"><g/></g></g><g fill="#000000" fill-opacity="1"><g transform="translate(196.042521, 43.362469)"><g><path d="M 3.953125 0.1875 C 3.003906 0.1875 2.265625 -0.0546875 1.734375 -0.546875 C 1.210938 -1.046875 0.953125 -1.753906 0.953125 -2.671875 C 0.953125 -3.234375 1.066406 -3.707031 1.296875 -4.09375 C 1.535156 -4.488281 1.898438 -4.804688 2.390625 -5.046875 C 2.878906 -5.296875 3.519531 -5.488281 4.3125 -5.625 C 5.007812 -5.738281 5.535156 -5.867188 5.890625 -6.015625 C 6.253906 -6.160156 6.5 -6.320312 6.625 -6.5 C 6.75 -6.675781 6.8125 -6.90625 6.8125 -7.1875 C 6.8125 -7.613281 6.660156 -7.941406 6.359375 -8.171875 C 6.066406 -8.410156 5.59375 -8.53125 4.9375 -8.53125 C 4.3125 -8.53125 3.773438 -8.410156 3.328125 -8.171875 C 2.890625 -7.929688 2.488281 -7.570312 2.125 -7.09375 L 1.9375 -7.09375 L 1.25 -8.078125 C 1.65625 -8.585938 2.171875 -8.992188 2.796875 -9.296875 C 3.421875 -9.609375 4.132812 -9.765625 4.9375 -9.765625 C 6.0625 -9.765625 6.890625 -9.515625 7.421875 -9.015625 C 7.960938 -8.523438 8.234375 -7.84375 8.234375 -6.96875 L 8.234375 -1.890625 C 8.234375 -1.347656 8.457031 -1.078125 8.90625 -1.078125 C 9.0625 -1.078125 9.207031 -1.101562 9.34375 -1.15625 L 9.46875 -1.125 L 9.625 -0.140625 C 9.519531 -0.078125 9.378906 -0.03125 9.203125 0 C 9.035156 0.0390625 8.863281 0.0625 8.6875 0.0625 C 8.164062 0.0625 7.769531 -0.0507812 7.5 -0.28125 C 7.226562 -0.507812 7.054688 -0.847656 6.984375 -1.296875 L 6.796875 -1.3125 C 6.523438 -0.8125 6.15625 -0.4375 5.6875 -0.1875 C 5.226562 0.0625 4.648438 0.1875 3.953125 0.1875 Z M 4.265625 -0.953125 C 4.796875 -0.953125 5.253906 -1.070312 5.640625 -1.3125 C 6.035156 -1.5625 6.335938 -1.90625 6.546875 -2.34375 C 6.753906 -2.789062 6.859375 -3.304688 6.859375 -3.890625 L 6.859375 -5.109375 L 6.6875 -5.15625 C 6.476562 -5 6.21875 -4.867188 5.90625 -4.765625 C 5.601562 -4.671875 5.175781 -4.582031 4.625 -4.5 C 4.070312 -4.425781 3.628906 -4.3125 3.296875 -4.15625 C 2.972656 -4 2.738281 -3.796875 2.59375 -3.546875 C 2.457031 -3.304688 2.390625 -3.015625 2.390625 -2.671875 C 2.390625 -2.109375 2.554688 -1.679688 2.890625 -1.390625 C 3.222656 -1.097656 3.679688 -0.953125 4.265625 -0.953125 Z M 4.265625 -0.953125 "/></g></g></g><g fill="#000000" fill-opacity="1"><g transform="translate(205.952307, 43.362469)"><g><path d="M 5.5 0.1875 C 4.65625 0.1875 3.894531 -0.00390625 3.21875 -0.390625 C 2.550781 -0.773438 2.019531 -1.34375 1.625 -2.09375 C 1.238281 -2.84375 1.046875 -3.738281 1.046875 -4.78125 C 1.046875 -5.832031 1.238281 -6.734375 1.625 -7.484375 C 2.019531 -8.234375 2.550781 -8.800781 3.21875 -9.1875 C 3.894531 -9.570312 4.65625 -9.765625 5.5 -9.765625 C 6.507812 -9.765625 7.3125 -9.570312 7.90625 -9.1875 C 8.507812 -8.800781 8.945312 -8.289062 9.21875 -7.65625 L 8.25 -6.96875 L 8.078125 -6.96875 C 7.816406 -7.488281 7.476562 -7.867188 7.0625 -8.109375 C 6.65625 -8.359375 6.132812 -8.484375 5.5 -8.484375 C 4.90625 -8.484375 4.382812 -8.34375 3.9375 -8.0625 C 3.488281 -7.789062 3.140625 -7.375 2.890625 -6.8125 C 2.648438 -6.257812 2.53125 -5.582031 2.53125 -4.78125 C 2.53125 -3.976562 2.65625 -3.300781 2.90625 -2.75 C 3.15625 -2.195312 3.5 -1.78125 3.9375 -1.5 C 4.382812 -1.21875 4.90625 -1.078125 5.5 -1.078125 C 6.164062 -1.078125 6.71875 -1.226562 7.15625 -1.53125 C 7.59375 -1.832031 7.929688 -2.304688 8.171875 -2.953125 L 8.359375 -2.953125 L 9.296875 -2.40625 C 9.046875 -1.601562 8.597656 -0.96875 7.953125 -0.5 C 7.316406 -0.0390625 6.5 0.1875 5.5 0.1875 Z M 5.5 0.1875 "/></g></g></g><g fill="#000000" fill-opacity="1"><g transform="translate(215.827359, 43.362469)"><g><path d="M 6.484375 -1.515625 L 6.921875 -0.5 C 6.703125 -0.28125 6.40625 -0.113281 6.03125 0 C 5.664062 0.125 5.269531 0.1875 4.84375 0.1875 C 3.007812 0.1875 2.09375 -0.738281 2.09375 -2.59375 L 2.09375 -8.421875 L 0.4375 -8.421875 L 0.4375 -9.578125 L 2.09375 -9.578125 L 2.09375 -11.609375 L 3.515625 -11.84375 L 3.515625 -9.578125 L 6.59375 -9.578125 L 6.59375 -8.421875 L 3.515625 -8.421875 L 3.515625 -2.734375 C 3.515625 -1.628906 3.992188 -1.078125 4.953125 -1.078125 C 5.472656 -1.078125 5.921875 -1.222656 6.296875 -1.515625 Z M 6.484375 -1.515625 "/></g></g></g><g fill="#000000" fill-opacity="1"><g transform="translate(223.122905, 43.362469)"><g><path d="M 2.375 -11.421875 C 2.070312 -11.421875 1.828125 -11.515625 1.640625 -11.703125 C 1.453125 -11.890625 1.359375 -12.128906 1.359375 -12.421875 C 1.359375 -12.710938 1.453125 -12.953125 1.640625 -13.140625 C 1.828125 -13.328125 2.070312 -13.421875 2.375 -13.421875 C 2.675781 -13.421875 2.921875 -13.328125 3.109375 -13.140625 C 3.296875 -12.953125 3.390625 -12.710938 3.390625 -12.421875 C 3.390625 -12.128906 3.296875 -11.890625 3.109375 -11.703125 C 2.921875 -11.515625 2.675781 -11.421875 2.375 -11.421875 Z M 1.671875 0 L 1.671875 -9.578125 L 3.078125 -9.578125 L 3.078125 0 Z M 1.671875 0 "/></g></g></g><g fill="#000000" fill-opacity="1"><g transform="translate(227.873697, 43.362469)"><g><path d="M 6.0625 0 L 4.109375 0 L 0.46875 -9.578125 L 2 -9.578125 L 5.015625 -1.609375 L 5.203125 -1.609375 L 8.203125 -9.578125 L 9.6875 -9.578125 Z M 6.0625 0 "/></g></g></g><g fill="#000000" fill-opacity="1"><g transform="translate(238.026663, 43.362469)"><g><path d="M 2.375 -11.421875 C 2.070312 -11.421875 1.828125 -11.515625 1.640625 -11.703125 C 1.453125 -11.890625 1.359375 -12.128906 1.359375 -12.421875 C 1.359375 -12.710938 1.453125 -12.953125 1.640625 -13.140625 C 1.828125 -13.328125 2.070312 -13.421875 2.375 -13.421875 C 2.675781 -13.421875 2.921875 -13.328125 3.109375 -13.140625 C 3.296875 -12.953125 3.390625 -12.710938 3.390625 -12.421875 C 3.390625 -12.128906 3.296875 -11.890625 3.109375 -11.703125 C 2.921875 -11.515625 2.675781 -11.421875 2.375 -11.421875 Z M 1.671875 0 L 1.671875 -9.578125 L 3.078125 -9.578125 L 3.078125 0 Z M 1.671875 0 "/></g></g></g><g fill="#000000" fill-opacity="1"><g transform="translate(242.777456, 43.362469)"><g><path d="M 4.96875 0.1875 C 4.195312 0.1875 3.515625 0.00390625 2.921875 -0.359375 C 2.335938 -0.734375 1.878906 -1.289062 1.546875 -2.03125 C 1.210938 -2.769531 1.046875 -3.6875 1.046875 -4.78125 C 1.046875 -5.875 1.21875 -6.789062 1.5625 -7.53125 C 1.914062 -8.28125 2.394531 -8.835938 3 -9.203125 C 3.613281 -9.578125 4.320312 -9.765625 5.125 -9.765625 C 5.769531 -9.765625 6.34375 -9.640625 6.84375 -9.390625 C 7.351562 -9.148438 7.789062 -8.757812 8.15625 -8.21875 L 8.34375 -8.25 L 8.34375 -13.421875 L 9.765625 -13.421875 L 9.765625 0 L 8.34375 0 L 8.34375 -1.390625 L 8.15625 -1.4375 C 7.84375 -0.957031 7.421875 -0.566406 6.890625 -0.265625 C 6.359375 0.0351562 5.71875 0.1875 4.96875 0.1875 Z M 5.40625 -1.078125 C 6.300781 -1.078125 7.015625 -1.382812 7.546875 -2 C 8.078125 -2.613281 8.34375 -3.539062 8.34375 -4.78125 C 8.34375 -6.03125 8.078125 -6.957031 7.546875 -7.5625 C 7.015625 -8.175781 6.300781 -8.484375 5.40625 -8.484375 C 4.488281 -8.484375 3.78125 -8.1875 3.28125 -7.59375 C 2.78125 -7 2.53125 -6.0625 2.53125 -4.78125 C 2.53125 -2.3125 3.488281 -1.078125 5.40625 -1.078125 Z M 5.40625 -1.078125 "/></g></g></g><g fill="#000000" fill-opacity="1"><g transform="translate(254.215838, 43.362469)"><g><path d="M 3.953125 0.1875 C 3.003906 0.1875 2.265625 -0.0546875 1.734375 -0.546875 C 1.210938 -1.046875 0.953125 -1.753906 0.953125 -2.671875 C 0.953125 -3.234375 1.066406 -3.707031 1.296875 -4.09375 C 1.535156 -4.488281 1.898438 -4.804688 2.390625 -5.046875 C 2.878906 -5.296875 3.519531 -5.488281 4.3125 -5.625 C 5.007812 -5.738281 5.535156 -5.867188 5.890625 -6.015625 C 6.253906 -6.160156 6.5 -6.320312 6.625 -6.5 C 6.75 -6.675781 6.8125 -6.90625 6.8125 -7.1875 C 6.8125 -7.613281 6.660156 -7.941406 6.359375 -8.171875 C 6.066406 -8.410156 5.59375 -8.53125 4.9375 -8.53125 C 4.3125 -8.53125 3.773438 -8.410156 3.328125 -8.171875 C 2.890625 -7.929688 2.488281 -7.570312 2.125 -7.09375 L 1.9375 -7.09375 L 1.25 -8.078125 C 1.65625 -8.585938 2.171875 -8.992188 2.796875 -9.296875 C 3.421875 -9.609375 4.132812 -9.765625 4.9375 -9.765625 C 6.0625 -9.765625 6.890625 -9.515625 7.421875 -9.015625 C 7.960938 -8.523438 8.234375 -7.84375 8.234375 -6.96875 L 8.234375 -1.890625 C 8.234375 -1.347656 8.457031 -1.078125 8.90625 -1.078125 C 9.0625 -1.078125 9.207031 -1.101562 9.34375 -1.15625 L 9.46875 -1.125 L 9.625 -0.140625 C 9.519531 -0.078125 9.378906 -0.03125 9.203125 0 C 9.035156 0.0390625 8.863281 0.0625 8.6875 0.0625 C 8.164062 0.0625 7.769531 -0.0507812 7.5 -0.28125 C 7.226562 -0.507812 7.054688 -0.847656 6.984375 -1.296875 L 6.796875 -1.3125 C 6.523438 -0.8125 6.15625 -0.4375 5.6875 -0.1875 C 5.226562 0.0625 4.648438 0.1875 3.953125 0.1875 Z M 4.265625 -0.953125 C 4.796875 -0.953125 5.253906 -1.070312 5.640625 -1.3125 C 6.035156 -1.5625 6.335938 -1.90625 6.546875 -2.34375 C 6.753906 -2.789062 6.859375 -3.304688 6.859375 -3.890625 L 6.859375 -5.109375 L 6.6875 -5.15625 C 6.476562 -5 6.21875 -4.867188 5.90625 -4.765625 C 5.601562 -4.671875 5.175781 -4.582031 4.625 -4.5 C 4.070312 -4.425781 3.628906 -4.3125 3.296875 -4.15625 C 2.972656 -4 2.738281 -3.796875 2.59375 -3.546875 C 2.457031 -3.304688 2.390625 -3.015625 2.390625 -2.671875 C 2.390625 -2.109375 2.554688 -1.679688 2.890625 -1.390625 C 3.222656 -1.097656 3.679688 -0.953125 4.265625 -0.953125 Z M 4.265625 -0.953125 "/></g></g></g><g fill="#000000" fill-opacity="1"><g transform="translate(264.125618, 43.362469)"><g><path d="M 4.96875 0.1875 C 4.195312 0.1875 3.515625 0.00390625 2.921875 -0.359375 C 2.335938 -0.734375 1.878906 -1.289062 1.546875 -2.03125 C 1.210938 -2.769531 1.046875 -3.6875 1.046875 -4.78125 C 1.046875 -5.875 1.21875 -6.789062 1.5625 -7.53125 C 1.914062 -8.28125 2.394531 -8.835938 3 -9.203125 C 3.613281 -9.578125 4.320312 -9.765625 5.125 -9.765625 C 5.769531 -9.765625 6.34375 -9.640625 6.84375 -9.390625 C 7.351562 -9.148438 7.789062 -8.757812 8.15625 -8.21875 L 8.34375 -8.25 L 8.34375 -13.421875 L 9.765625 -13.421875 L 9.765625 0 L 8.34375 0 L 8.34375 -1.390625 L 8.15625 -1.4375 C 7.84375 -0.957031 7.421875 -0.566406 6.890625 -0.265625 C 6.359375 0.0351562 5.71875 0.1875 4.96875 0.1875 Z M 5.40625 -1.078125 C 6.300781 -1.078125 7.015625 -1.382812 7.546875 -2 C 8.078125 -2.613281 8.34375 -3.539062 8.34375 -4.78125 C 8.34375 -6.03125 8.078125 -6.957031 7.546875 -7.5625 C 7.015625 -8.175781 6.300781 -8.484375 5.40625 -8.484375 C 4.488281 -8.484375 3.78125 -8.1875 3.28125 -7.59375 C 2.78125 -7 2.53125 -6.0625 2.53125 -4.78125 C 2.53125 -2.3125 3.488281 -1.078125 5.40625 -1.078125 Z M 5.40625 -1.078125 "/></g></g></g><g fill="#000000" fill-opacity="1"><g transform="translate(275.563989, 43.362469)"><g><path d="M 9.125 -4.46875 L 2.546875 -4.46875 C 2.585938 -3.300781 2.863281 -2.441406 3.375 -1.890625 C 3.894531 -1.347656 4.609375 -1.078125 5.515625 -1.078125 C 6.191406 -1.078125 6.738281 -1.195312 7.15625 -1.4375 C 7.570312 -1.6875 7.898438 -2.070312 8.140625 -2.59375 L 8.328125 -2.59375 L 9.25 -2.046875 C 8.96875 -1.347656 8.519531 -0.800781 7.90625 -0.40625 C 7.300781 -0.0078125 6.503906 0.1875 5.515625 0.1875 C 4.585938 0.1875 3.789062 0.00390625 3.125 -0.359375 C 2.457031 -0.722656 1.941406 -1.273438 1.578125 -2.015625 C 1.222656 -2.765625 1.046875 -3.6875 1.046875 -4.78125 C 1.046875 -5.875 1.234375 -6.789062 1.609375 -7.53125 C 1.992188 -8.28125 2.515625 -8.835938 3.171875 -9.203125 C 3.828125 -9.578125 4.578125 -9.765625 5.421875 -9.765625 C 6.648438 -9.765625 7.609375 -9.414062 8.296875 -8.71875 C 8.984375 -8.03125 9.332031 -7.003906 9.34375 -5.640625 C 9.34375 -5.109375 9.332031 -4.75 9.3125 -4.5625 Z M 7.9375 -5.640625 C 7.914062 -6.660156 7.691406 -7.398438 7.265625 -7.859375 C 6.835938 -8.328125 6.222656 -8.5625 5.421875 -8.5625 C 4.585938 -8.5625 3.929688 -8.328125 3.453125 -7.859375 C 2.972656 -7.390625 2.679688 -6.648438 2.578125 -5.640625 Z M 7.9375 -5.640625 "/></g></g></g><g fill="#000000" fill-opacity="1"><g transform="translate(285.777753, 43.362469)"><g><path d="M 4.359375 0.1875 C 3.765625 0.1875 3.207031 0.109375 2.6875 -0.046875 C 2.175781 -0.210938 1.742188 -0.429688 1.390625 -0.703125 C 1.046875 -0.984375 0.800781 -1.300781 0.65625 -1.65625 L 1.484375 -2.515625 L 1.671875 -2.515625 C 1.984375 -2.046875 2.359375 -1.6875 2.796875 -1.4375 C 3.234375 -1.195312 3.753906 -1.078125 4.359375 -1.078125 C 5.066406 -1.078125 5.601562 -1.210938 5.96875 -1.484375 C 6.34375 -1.765625 6.53125 -2.148438 6.53125 -2.640625 C 6.53125 -3.023438 6.414062 -3.335938 6.1875 -3.578125 C 5.96875 -3.828125 5.609375 -4.007812 5.109375 -4.125 L 3.5 -4.53125 C 2.632812 -4.738281 2.003906 -5.066406 1.609375 -5.515625 C 1.210938 -5.972656 1.015625 -6.535156 1.015625 -7.203125 C 1.015625 -7.722656 1.144531 -8.175781 1.40625 -8.5625 C 1.675781 -8.945312 2.0625 -9.242188 2.5625 -9.453125 C 3.0625 -9.660156 3.65625 -9.765625 4.34375 -9.765625 C 5.226562 -9.765625 5.921875 -9.640625 6.421875 -9.390625 C 6.929688 -9.140625 7.328125 -8.796875 7.609375 -8.359375 L 6.8125 -7.578125 L 6.640625 -7.578125 C 6.335938 -7.929688 6.003906 -8.1875 5.640625 -8.34375 C 5.273438 -8.5 4.84375 -8.578125 4.34375 -8.578125 C 3.71875 -8.578125 3.234375 -8.460938 2.890625 -8.234375 C 2.554688 -8.015625 2.390625 -7.691406 2.390625 -7.265625 C 2.390625 -6.867188 2.507812 -6.550781 2.75 -6.3125 C 2.988281 -6.082031 3.40625 -5.894531 4 -5.75 L 5.578125 -5.359375 C 6.410156 -5.171875 7.007812 -4.847656 7.375 -4.390625 C 7.75 -3.929688 7.9375 -3.359375 7.9375 -2.671875 C 7.9375 -2.109375 7.800781 -1.609375 7.53125 -1.171875 C 7.269531 -0.742188 6.867188 -0.410156 6.328125 -0.171875 C 5.796875 0.0664062 5.140625 0.1875 4.359375 0.1875 Z M 4.359375 0.1875 "/></g></g></g></g></g><g fill="#b02119" fill-opacity="1"><g transform="translate(46.219695, 199.385751)"><g><path d="M 16.921875 -14.40625 C 16.628906 -12.707031 15.800781 -11.296875 14.4375 -10.171875 C 13.070312 -9.054688 11.210938 -8.5 8.859375 -8.5 L 4.9375 -8.5 L 3.421875 0 L 0.765625 0 L 4.375 -20.359375 L 10.953125 -20.359375 C 12.984375 -20.359375 14.503906 -19.925781 15.515625 -19.0625 C 16.523438 -18.195312 17.03125 -17.046875 17.03125 -15.609375 C 17.03125 -15.347656 16.992188 -14.945312 16.921875 -14.40625 Z M 9.234375 -10.609375 C 10.691406 -10.609375 11.828125 -10.941406 12.640625 -11.609375 C 13.460938 -12.285156 13.984375 -13.21875 14.203125 -14.40625 C 14.253906 -14.757812 14.28125 -15.082031 14.28125 -15.375 C 14.28125 -17.300781 13.046875 -18.265625 10.578125 -18.265625 L 6.65625 -18.265625 L 5.3125 -10.609375 Z M 9.234375 -10.609375 "/></g></g></g><g fill="#b02119" fill-opacity="1"><g transform="translate(63.136217, 199.385751)"><g><path d="M 5.734375 -12.96875 C 6.367188 -14.019531 7.171875 -14.835938 8.140625 -15.421875 C 9.117188 -16.003906 10.234375 -16.296875 11.484375 -16.296875 L 10.984375 -13.5625 L 10.28125 -13.5625 C 8.894531 -13.5625 7.738281 -13.191406 6.8125 -12.453125 C 5.894531 -11.710938 5.28125 -10.460938 4.96875 -8.703125 L 3.421875 0 L 0.765625 0 L 3.59375 -16.015625 L 6.25 -16.015625 Z M 5.734375 -12.96875 "/></g></g></g><g fill="#b02119" fill-opacity="1"><g transform="translate(74.034078, 199.385751)"><g><path d="M 7.796875 0.265625 C 6.453125 0.265625 5.269531 -0.0078125 4.25 -0.5625 C 3.226562 -1.125 2.429688 -1.90625 1.859375 -2.90625 C 1.296875 -3.90625 1.015625 -5.070312 1.015625 -6.40625 C 1.015625 -8.207031 1.429688 -9.863281 2.265625 -11.375 C 3.109375 -12.882812 4.265625 -14.078125 5.734375 -14.953125 C 7.210938 -15.835938 8.859375 -16.28125 10.671875 -16.28125 C 12.015625 -16.28125 13.207031 -16 14.25 -15.4375 C 15.289062 -14.882812 16.097656 -14.101562 16.671875 -13.09375 C 17.242188 -12.09375 17.53125 -10.921875 17.53125 -9.578125 C 17.53125 -7.765625 17.097656 -6.109375 16.234375 -4.609375 C 15.378906 -3.109375 14.210938 -1.921875 12.734375 -1.046875 C 11.253906 -0.171875 9.609375 0.265625 7.796875 0.265625 Z M 8.125 -1.984375 C 9.382812 -1.984375 10.519531 -2.328125 11.53125 -3.015625 C 12.550781 -3.710938 13.347656 -4.628906 13.921875 -5.765625 C 14.492188 -6.910156 14.78125 -8.132812 14.78125 -9.4375 C 14.78125 -10.914062 14.351562 -12.050781 13.5 -12.84375 C 12.644531 -13.632812 11.570312 -14.03125 10.28125 -14.03125 C 9.019531 -14.03125 7.890625 -13.679688 6.890625 -12.984375 C 5.898438 -12.296875 5.128906 -11.375 4.578125 -10.21875 C 4.035156 -9.070312 3.765625 -7.835938 3.765625 -6.515625 C 3.765625 -5.078125 4.171875 -3.960938 4.984375 -3.171875 C 5.804688 -2.378906 6.851562 -1.984375 8.125 -1.984375 Z M 8.125 -1.984375 "/></g></g></g><g fill="#b02119" fill-opacity="1"><g transform="translate(92.73282, 199.385751)"><g><path d="M 8.390625 -8.09375 L 12.125 0 L 9.109375 0 L 6.375 -5.953125 L 1.671875 0 L -1.140625 0 L 5.46875 -7.953125 L 1.71875 -16.015625 L 4.734375 -16.015625 L 7.453125 -10.109375 L 12.125 -16.015625 L 14.9375 -16.015625 Z M 8.390625 -8.09375 "/></g></g></g><g fill="#b02119" fill-opacity="1"><g transform="translate(106.72766, 199.385751)"><g><path d="M 5.40625 -18.609375 C 4.976562 -18.609375 4.625 -18.75 4.34375 -19.03125 C 4.0625 -19.3125 3.921875 -19.671875 3.921875 -20.109375 C 3.921875 -20.691406 4.132812 -21.191406 4.5625 -21.609375 C 4.988281 -22.023438 5.484375 -22.234375 6.046875 -22.234375 C 6.492188 -22.234375 6.851562 -22.097656 7.125 -21.828125 C 7.394531 -21.554688 7.53125 -21.195312 7.53125 -20.75 C 7.53125 -20.164062 7.316406 -19.660156 6.890625 -19.234375 C 6.460938 -18.816406 5.96875 -18.609375 5.40625 -18.609375 Z M 6.25 -16.015625 L 3.421875 0 L 0.765625 0 L 3.59375 -16.015625 Z M 6.25 -16.015625 "/></g></g></g><g fill="#b02119" fill-opacity="1"><g transform="translate(113.91499, 199.385751)"><g><path d="M 22.90625 -16.296875 C 24.539062 -16.296875 25.847656 -15.851562 26.828125 -14.96875 C 27.816406 -14.082031 28.3125 -12.796875 28.3125 -11.109375 C 28.3125 -10.484375 28.265625 -9.925781 28.171875 -9.4375 L 26.5 0 L 23.875 0 L 25.484375 -9.0625 C 25.554688 -9.46875 25.59375 -9.90625 25.59375 -10.375 C 25.59375 -11.5625 25.273438 -12.460938 24.640625 -13.078125 C 24.015625 -13.691406 23.125 -14 21.96875 -14 C 20.644531 -14 19.507812 -13.59375 18.5625 -12.78125 C 17.625 -11.976562 16.976562 -10.816406 16.625 -9.296875 L 14.953125 0 L 12.328125 0 L 13.9375 -9.0625 C 14.007812 -9.507812 14.046875 -9.957031 14.046875 -10.40625 C 14.046875 -11.570312 13.726562 -12.460938 13.09375 -13.078125 C 12.46875 -13.691406 11.582031 -14 10.4375 -14 C 9.050781 -14 7.867188 -13.554688 6.890625 -12.671875 C 5.921875 -11.785156 5.289062 -10.503906 5 -8.828125 L 5 -8.875 L 3.421875 0 L 0.765625 0 L 3.59375 -16.015625 L 6.25 -16.015625 L 5.84375 -13.703125 C 6.507812 -14.535156 7.328125 -15.175781 8.296875 -15.625 C 9.273438 -16.070312 10.296875 -16.296875 11.359375 -16.296875 C 12.703125 -16.296875 13.835938 -15.992188 14.765625 -15.390625 C 15.691406 -14.796875 16.300781 -13.910156 16.59375 -12.734375 C 17.257812 -13.867188 18.160156 -14.742188 19.296875 -15.359375 C 20.441406 -15.984375 21.644531 -16.296875 22.90625 -16.296875 Z M 22.90625 -16.296875 "/></g></g></g><g fill="#b02119" fill-opacity="1"><g transform="translate(144.008275, 199.385751)"><g><path d="M 7.796875 0.265625 C 6.453125 0.265625 5.269531 -0.0078125 4.25 -0.5625 C 3.226562 -1.125 2.429688 -1.90625 1.859375 -2.90625 C 1.296875 -3.90625 1.015625 -5.070312 1.015625 -6.40625 C 1.015625 -8.207031 1.429688 -9.863281 2.265625 -11.375 C 3.109375 -12.882812 4.265625 -14.078125 5.734375 -14.953125 C 7.210938 -15.835938 8.859375 -16.28125 10.671875 -16.28125 C 12.015625 -16.28125 13.207031 -16 14.25 -15.4375 C 15.289062 -14.882812 16.097656 -14.101562 16.671875 -13.09375 C 17.242188 -12.09375 17.53125 -10.921875 17.53125 -9.578125 C 17.53125 -7.765625 17.097656 -6.109375 16.234375 -4.609375 C 15.378906 -3.109375 14.210938 -1.921875 12.734375 -1.046875 C 11.253906 -0.171875 9.609375 0.265625 7.796875 0.265625 Z M 8.125 -1.984375 C 9.382812 -1.984375 10.519531 -2.328125 11.53125 -3.015625 C 12.550781 -3.710938 13.347656 -4.628906 13.921875 -5.765625 C 14.492188 -6.910156 14.78125 -8.132812 14.78125 -9.4375 C 14.78125 -10.914062 14.351562 -12.050781 13.5 -12.84375 C 12.644531 -13.632812 11.570312 -14.03125 10.28125 -14.03125 C 9.019531 -14.03125 7.890625 -13.679688 6.890625 -12.984375 C 5.898438 -12.296875 5.128906 -11.375 4.578125 -10.21875 C 4.035156 -9.070312 3.765625 -7.835938 3.765625 -6.515625 C 3.765625 -5.078125 4.171875 -3.960938 4.984375 -3.171875 C 5.804688 -2.378906 6.851562 -1.984375 8.125 -1.984375 Z M 8.125 -1.984375 "/></g></g></g><g fill="#b02119" fill-opacity="1"><g transform="translate(162.707018, 199.385751)"><g><path d="M 6.40625 0.265625 C 4.726562 0.265625 3.351562 -0.132812 2.28125 -0.9375 C 1.207031 -1.738281 0.671875 -2.8125 0.671875 -4.15625 C 0.671875 -4.40625 0.679688 -4.585938 0.703125 -4.703125 L 3.296875 -4.703125 C 3.222656 -3.867188 3.472656 -3.1875 4.046875 -2.65625 C 4.617188 -2.132812 5.453125 -1.875 6.546875 -1.875 C 7.640625 -1.875 8.519531 -2.082031 9.1875 -2.5 C 9.863281 -2.914062 10.203125 -3.503906 10.203125 -4.265625 C 10.203125 -4.910156 9.925781 -5.414062 9.375 -5.78125 C 8.832031 -6.15625 7.992188 -6.554688 6.859375 -6.984375 C 5.867188 -7.347656 5.050781 -7.695312 4.40625 -8.03125 C 3.769531 -8.363281 3.226562 -8.828125 2.78125 -9.421875 C 2.332031 -10.015625 2.109375 -10.769531 2.109375 -11.6875 C 2.109375 -12.582031 2.363281 -13.378906 2.875 -14.078125 C 3.394531 -14.785156 4.113281 -15.328125 5.03125 -15.703125 C 5.957031 -16.085938 7.015625 -16.28125 8.203125 -16.28125 C 9.847656 -16.28125 11.195312 -15.867188 12.25 -15.046875 C 13.300781 -14.234375 13.828125 -13.160156 13.828125 -11.828125 C 13.828125 -11.578125 13.816406 -11.382812 13.796875 -11.25 L 11.25 -11.25 L 11.28125 -11.59375 C 11.28125 -12.375 10.984375 -12.992188 10.390625 -13.453125 C 9.796875 -13.910156 9.007812 -14.140625 8.03125 -14.140625 C 7.082031 -14.140625 6.300781 -13.925781 5.6875 -13.5 C 5.070312 -13.070312 4.765625 -12.5 4.765625 -11.78125 C 4.765625 -11.09375 5.046875 -10.550781 5.609375 -10.15625 C 6.171875 -9.769531 7.046875 -9.34375 8.234375 -8.875 C 9.234375 -8.488281 10.035156 -8.132812 10.640625 -7.8125 C 11.242188 -7.488281 11.757812 -7.046875 12.1875 -6.484375 C 12.613281 -5.921875 12.828125 -5.210938 12.828125 -4.359375 C 12.828125 -3.421875 12.546875 -2.597656 11.984375 -1.890625 C 11.429688 -1.191406 10.664062 -0.65625 9.6875 -0.28125 C 8.71875 0.0820312 7.625 0.265625 6.40625 0.265625 Z M 6.40625 0.265625 "/></g></g></g><g fill="#b02119" fill-opacity="1"><g transform="translate(177.958179, 199.385751)"><g/></g></g><g fill="#b02119" fill-opacity="1"><g transform="translate(186.664781, 199.385751)"><g><path d="M 10.546875 -16.28125 C 11.890625 -16.28125 13.050781 -16.019531 14.03125 -15.5 C 15.019531 -14.976562 15.769531 -14.253906 16.28125 -13.328125 C 16.800781 -12.410156 17.0625 -11.359375 17.0625 -10.171875 C 17.0625 -9.753906 17.015625 -9.253906 16.921875 -8.671875 C 16.835938 -8.171875 16.707031 -7.644531 16.53125 -7.09375 L 3.734375 -7.09375 C 3.703125 -6.707031 3.6875 -6.425781 3.6875 -6.25 C 3.6875 -4.90625 4.085938 -3.859375 4.890625 -3.109375 C 5.703125 -2.359375 6.757812 -1.984375 8.0625 -1.984375 C 9.207031 -1.984375 10.210938 -2.25 11.078125 -2.78125 C 11.953125 -3.320312 12.613281 -4.039062 13.0625 -4.9375 L 15.921875 -4.9375 C 15.222656 -3.394531 14.144531 -2.140625 12.6875 -1.171875 C 11.238281 -0.210938 9.5625 0.265625 7.65625 0.265625 C 5.644531 0.265625 4.03125 -0.3125 2.8125 -1.46875 C 1.601562 -2.632812 1 -4.21875 1 -6.21875 C 1 -6.789062 1.054688 -7.394531 1.171875 -8.03125 C 1.460938 -9.6875 2.054688 -11.140625 2.953125 -12.390625 C 3.847656 -13.640625 4.953125 -14.597656 6.265625 -15.265625 C 7.578125 -15.941406 9.003906 -16.28125 10.546875 -16.28125 Z M 14.234375 -9.03125 C 14.285156 -9.414062 14.3125 -9.773438 14.3125 -10.109375 C 14.3125 -11.359375 13.914062 -12.320312 13.125 -13 C 12.34375 -13.6875 11.316406 -14.03125 10.046875 -14.03125 C 8.679688 -14.03125 7.441406 -13.582031 6.328125 -12.6875 C 5.222656 -11.800781 4.476562 -10.582031 4.09375 -9.03125 Z M 14.234375 -9.03125 "/></g></g></g><g fill="#b02119" fill-opacity="1"><g transform="translate(204.779189, 199.385751)"><g><path d="M 7.15625 -2.515625 L 14.515625 -16.015625 L 17.390625 -16.015625 L 8.265625 0 L 5.140625 0 L 1.6875 -16.015625 L 4.5625 -16.015625 Z M 7.15625 -2.515625 "/></g></g></g><g fill="#b02119" fill-opacity="1"><g transform="translate(221.169801, 199.385751)"><g><path d="M 10.546875 -16.28125 C 11.890625 -16.28125 13.050781 -16.019531 14.03125 -15.5 C 15.019531 -14.976562 15.769531 -14.253906 16.28125 -13.328125 C 16.800781 -12.410156 17.0625 -11.359375 17.0625 -10.171875 C 17.0625 -9.753906 17.015625 -9.253906 16.921875 -8.671875 C 16.835938 -8.171875 16.707031 -7.644531 16.53125 -7.09375 L 3.734375 -7.09375 C 3.703125 -6.707031 3.6875 -6.425781 3.6875 -6.25 C 3.6875 -4.90625 4.085938 -3.859375 4.890625 -3.109375 C 5.703125 -2.359375 6.757812 -1.984375 8.0625 -1.984375 C 9.207031 -1.984375 10.210938 -2.25 11.078125 -2.78125 C 11.953125 -3.320312 12.613281 -4.039062 13.0625 -4.9375 L 15.921875 -4.9375 C 15.222656 -3.394531 14.144531 -2.140625 12.6875 -1.171875 C 11.238281 -0.210938 9.5625 0.265625 7.65625 0.265625 C 5.644531 0.265625 4.03125 -0.3125 2.8125 -1.46875 C 1.601562 -2.632812 1 -4.21875 1 -6.21875 C 1 -6.789062 1.054688 -7.394531 1.171875 -8.03125 C 1.460938 -9.6875 2.054688 -11.140625 2.953125 -12.390625 C 3.847656 -13.640625 4.953125 -14.597656 6.265625 -15.265625 C 7.578125 -15.941406 9.003906 -16.28125 10.546875 -16.28125 Z M 14.234375 -9.03125 C 14.285156 -9.414062 14.3125 -9.773438 14.3125 -10.109375 C 14.3125 -11.359375 13.914062 -12.320312 13.125 -13 C 12.34375 -13.6875 11.316406 -14.03125 10.046875 -14.03125 C 8.679688 -14.03125 7.441406 -13.582031 6.328125 -12.6875 C 5.222656 -11.800781 4.476562 -10.582031 4.09375 -9.03125 Z M 14.234375 -9.03125 "/></g></g></g><g fill="#b02119" fill-opacity="1"><g transform="translate(239.28421, 199.385751)"><g><path d="M 11.453125 -16.296875 C 13.109375 -16.296875 14.429688 -15.851562 15.421875 -14.96875 C 16.421875 -14.082031 16.921875 -12.796875 16.921875 -11.109375 C 16.921875 -10.484375 16.867188 -9.925781 16.765625 -9.4375 L 15.109375 0 L 12.46875 0 L 14.078125 -9.0625 C 14.160156 -9.46875 14.203125 -9.894531 14.203125 -10.34375 C 14.203125 -11.53125 13.875 -12.4375 13.21875 -13.0625 C 12.570312 -13.6875 11.660156 -14 10.484375 -14 C 9.085938 -14 7.894531 -13.554688 6.90625 -12.671875 C 5.925781 -11.796875 5.289062 -10.523438 5 -8.859375 L 5 -8.90625 L 3.421875 0 L 0.765625 0 L 3.59375 -16.015625 L 6.25 -16.015625 L 5.84375 -13.703125 C 6.507812 -14.535156 7.335938 -15.175781 8.328125 -15.625 C 9.316406 -16.070312 10.359375 -16.296875 11.453125 -16.296875 Z M 11.453125 -16.296875 "/></g></g></g><g fill="#b02119" fill-opacity="1"><g transform="translate(257.982953, 199.385751)"><g><path d="M 4.796875 -4.375 C 4.734375 -4.082031 4.703125 -3.832031 4.703125 -3.625 C 4.703125 -3.132812 4.851562 -2.78125 5.15625 -2.5625 C 5.457031 -2.351562 5.945312 -2.25 6.625 -2.25 L 8.59375 -2.25 L 8.1875 0 L 5.78125 0 C 4.519531 0 3.570312 -0.238281 2.9375 -0.71875 C 2.300781 -1.207031 1.984375 -2.007812 1.984375 -3.125 C 1.984375 -3.550781 2.023438 -3.96875 2.109375 -4.375 L 3.765625 -13.828125 L 1.71875 -13.828125 L 2.109375 -16.015625 L 4.171875 -16.015625 L 4.875 -20.046875 L 7.5625 -20.046875 L 6.859375 -16.015625 L 11.015625 -16.015625 L 10.640625 -13.828125 L 6.453125 -13.828125 Z M 4.796875 -4.375 "/></g></g></g><g fill="#b02119" fill-opacity="1"><g transform="translate(268.617864, 199.385751)"><g><path d="M 7.796875 0.265625 C 6.453125 0.265625 5.269531 -0.0078125 4.25 -0.5625 C 3.226562 -1.125 2.429688 -1.90625 1.859375 -2.90625 C 1.296875 -3.90625 1.015625 -5.070312 1.015625 -6.40625 C 1.015625 -8.207031 1.429688 -9.863281 2.265625 -11.375 C 3.109375 -12.882812 4.265625 -14.078125 5.734375 -14.953125 C 7.210938 -15.835938 8.859375 -16.28125 10.671875 -16.28125 C 12.015625 -16.28125 13.207031 -16 14.25 -15.4375 C 15.289062 -14.882812 16.097656 -14.101562 16.671875 -13.09375 C 17.242188 -12.09375 17.53125 -10.921875 17.53125 -9.578125 C 17.53125 -7.765625 17.097656 -6.109375 16.234375 -4.609375 C 15.378906 -3.109375 14.210938 -1.921875 12.734375 -1.046875 C 11.253906 -0.171875 9.609375 0.265625 7.796875 0.265625 Z M 8.125 -1.984375 C 9.382812 -1.984375 10.519531 -2.328125 11.53125 -3.015625 C 12.550781 -3.710938 13.347656 -4.628906 13.921875 -5.765625 C 14.492188 -6.910156 14.78125 -8.132812 14.78125 -9.4375 C 14.78125 -10.914062 14.351562 -12.050781 13.5 -12.84375 C 12.644531 -13.632812 11.570312 -14.03125 10.28125 -14.03125 C 9.019531 -14.03125 7.890625 -13.679688 6.890625 -12.984375 C 5.898438 -12.296875 5.128906 -11.375 4.578125 -10.21875 C 4.035156 -9.070312 3.765625 -7.835938 3.765625 -6.515625 C 3.765625 -5.078125 4.171875 -3.960938 4.984375 -3.171875 C 5.804688 -2.378906 6.851562 -1.984375 8.125 -1.984375 Z M 8.125 -1.984375 "/></g></g></g><g fill="#b02119" fill-opacity="1"><g transform="translate(287.316607, 199.385751)"><g><path d="M 6.40625 0.265625 C 4.726562 0.265625 3.351562 -0.132812 2.28125 -0.9375 C 1.207031 -1.738281 0.671875 -2.8125 0.671875 -4.15625 C 0.671875 -4.40625 0.679688 -4.585938 0.703125 -4.703125 L 3.296875 -4.703125 C 3.222656 -3.867188 3.472656 -3.1875 4.046875 -2.65625 C 4.617188 -2.132812 5.453125 -1.875 6.546875 -1.875 C 7.640625 -1.875 8.519531 -2.082031 9.1875 -2.5 C 9.863281 -2.914062 10.203125 -3.503906 10.203125 -4.265625 C 10.203125 -4.910156 9.925781 -5.414062 9.375 -5.78125 C 8.832031 -6.15625 7.992188 -6.554688 6.859375 -6.984375 C 5.867188 -7.347656 5.050781 -7.695312 4.40625 -8.03125 C 3.769531 -8.363281 3.226562 -8.828125 2.78125 -9.421875 C 2.332031 -10.015625 2.109375 -10.769531 2.109375 -11.6875 C 2.109375 -12.582031 2.363281 -13.378906 2.875 -14.078125 C 3.394531 -14.785156 4.113281 -15.328125 5.03125 -15.703125 C 5.957031 -16.085938 7.015625 -16.28125 8.203125 -16.28125 C 9.847656 -16.28125 11.195312 -15.867188 12.25 -15.046875 C 13.300781 -14.234375 13.828125 -13.160156 13.828125 -11.828125 C 13.828125 -11.578125 13.816406 -11.382812 13.796875 -11.25 L 11.25 -11.25 L 11.28125 -11.59375 C 11.28125 -12.375 10.984375 -12.992188 10.390625 -13.453125 C 9.796875 -13.910156 9.007812 -14.140625 8.03125 -14.140625 C 7.082031 -14.140625 6.300781 -13.925781 5.6875 -13.5 C 5.070312 -13.070312 4.765625 -12.5 4.765625 -11.78125 C 4.765625 -11.09375 5.046875 -10.550781 5.609375 -10.15625 C 6.171875 -9.769531 7.046875 -9.34375 8.234375 -8.875 C 9.234375 -8.488281 10.035156 -8.132812 10.640625 -7.8125 C 11.242188 -7.488281 11.757812 -7.046875 12.1875 -6.484375 C 12.613281 -5.921875 12.828125 -5.210938 12.828125 -4.359375 C 12.828125 -3.421875 12.546875 -2.597656 11.984375 -1.890625 C 11.429688 -1.191406 10.664062 -0.65625 9.6875 -0.28125 C 8.71875 0.0820312 7.625 0.265625 6.40625 0.265625 Z M 6.40625 0.265625 "/></g></g></g><g fill="#000000" fill-opacity="1"><g transform="translate(45.161428, 239.452086)"><g><path d="M 3.765625 -6.59375 L 3.765625 -1.359375 L 10.890625 -1.359375 L 10.890625 0 L 2.109375 0 L 2.109375 -13.984375 L 10.734375 -13.984375 L 10.734375 -12.625 L 3.765625 -12.625 L 3.765625 -7.953125 L 9.90625 -7.953125 L 9.90625 -6.59375 Z M 3.765625 -6.59375 "/></g></g></g><g fill="#000000" fill-opacity="1"><g transform="translate(56.738455, 239.452086)"><g><path d="M 6.671875 0 L 4.53125 0 L 0.515625 -10.546875 L 2.203125 -10.546875 L 5.515625 -1.78125 L 5.734375 -1.78125 L 9.03125 -10.546875 L 10.671875 -10.546875 Z M 6.671875 0 "/></g></g></g><g fill="#000000" fill-opacity="1"><g transform="translate(67.722278, 239.452086)"><g><path d="M 10.0625 -4.921875 L 2.796875 -4.921875 C 2.847656 -3.640625 3.15625 -2.695312 3.71875 -2.09375 C 4.289062 -1.5 5.078125 -1.203125 6.078125 -1.203125 C 6.828125 -1.203125 7.429688 -1.332031 7.890625 -1.59375 C 8.347656 -1.863281 8.707031 -2.285156 8.96875 -2.859375 L 9.171875 -2.859375 L 10.1875 -2.265625 C 9.882812 -1.492188 9.394531 -0.890625 8.71875 -0.453125 C 8.050781 -0.015625 7.171875 0.203125 6.078125 0.203125 C 5.054688 0.203125 4.175781 0.00390625 3.4375 -0.390625 C 2.707031 -0.796875 2.144531 -1.40625 1.75 -2.21875 C 1.351562 -3.039062 1.15625 -4.054688 1.15625 -5.265625 C 1.15625 -6.460938 1.363281 -7.472656 1.78125 -8.296875 C 2.195312 -9.117188 2.765625 -9.734375 3.484375 -10.140625 C 4.210938 -10.546875 5.046875 -10.75 5.984375 -10.75 C 7.328125 -10.75 8.378906 -10.367188 9.140625 -9.609375 C 9.898438 -8.847656 10.285156 -7.71875 10.296875 -6.21875 C 10.296875 -5.632812 10.28125 -5.238281 10.25 -5.03125 Z M 8.75 -6.21875 C 8.726562 -7.34375 8.476562 -8.160156 8 -8.671875 C 7.53125 -9.179688 6.859375 -9.4375 5.984375 -9.4375 C 5.054688 -9.4375 4.328125 -9.175781 3.796875 -8.65625 C 3.273438 -8.144531 2.957031 -7.332031 2.84375 -6.21875 Z M 8.75 -6.21875 "/></g></g></g><g fill="#000000" fill-opacity="1"><g transform="translate(78.974033, 239.452086)"><g><path d="M 1.84375 0 L 1.84375 -10.546875 L 3.3125 -10.546875 L 3.3125 -8.890625 L 3.515625 -8.84375 C 3.867188 -9.46875 4.316406 -9.941406 4.859375 -10.265625 C 5.410156 -10.585938 6.078125 -10.75 6.859375 -10.75 C 8.128906 -10.75 9.046875 -10.425781 9.609375 -9.78125 C 10.179688 -9.132812 10.46875 -8.140625 10.46875 -6.796875 L 10.46875 0 L 8.921875 0 L 8.921875 -6.75 C 8.921875 -7.394531 8.835938 -7.910156 8.671875 -8.296875 C 8.503906 -8.679688 8.25 -8.957031 7.90625 -9.125 C 7.570312 -9.300781 7.128906 -9.390625 6.578125 -9.390625 C 5.617188 -9.390625 4.847656 -9.078125 4.265625 -8.453125 C 3.679688 -7.828125 3.390625 -6.816406 3.390625 -5.421875 L 3.390625 0 Z M 1.84375 0 "/></g></g></g><g fill="#000000" fill-opacity="1"><g transform="translate(91.04861, 239.452086)"><g><path d="M 7.140625 -1.671875 L 7.640625 -0.5625 C 7.390625 -0.3125 7.0625 -0.125 6.65625 0 C 6.25 0.132812 5.8125 0.203125 5.34375 0.203125 C 3.320312 0.203125 2.3125 -0.816406 2.3125 -2.859375 L 2.3125 -9.28125 L 0.484375 -9.28125 L 0.484375 -10.5625 L 2.3125 -10.5625 L 2.3125 -12.796875 L 3.875 -13.046875 L 3.875 -10.5625 L 7.265625 -10.5625 L 7.265625 -9.28125 L 3.875 -9.28125 L 3.875 -3.015625 C 3.875 -1.804688 4.398438 -1.203125 5.453125 -1.203125 C 6.023438 -1.203125 6.519531 -1.359375 6.9375 -1.671875 Z M 7.140625 -1.671875 "/></g></g></g><g fill="#000000" fill-opacity="1"><g transform="translate(98.961174, 239.452086)"><g><path d="M 6.0625 0.203125 C 5.0625 0.203125 4.191406 -0.00390625 3.453125 -0.421875 C 2.722656 -0.847656 2.15625 -1.46875 1.75 -2.28125 C 1.351562 -3.101562 1.15625 -4.097656 1.15625 -5.265625 C 1.15625 -6.429688 1.351562 -7.425781 1.75 -8.25 C 2.15625 -9.070312 2.722656 -9.691406 3.453125 -10.109375 C 4.191406 -10.535156 5.0625 -10.75 6.0625 -10.75 C 7.050781 -10.75 7.914062 -10.535156 8.65625 -10.109375 C 9.394531 -9.691406 9.960938 -9.070312 10.359375 -8.25 C 10.753906 -7.425781 10.953125 -6.429688 10.953125 -5.265625 C 10.953125 -4.097656 10.753906 -3.101562 10.359375 -2.28125 C 9.960938 -1.46875 9.394531 -0.847656 8.65625 -0.421875 C 7.914062 -0.00390625 7.050781 0.203125 6.0625 0.203125 Z M 6.0625 -1.203125 C 7.113281 -1.203125 7.914062 -1.53125 8.46875 -2.1875 C 9.03125 -2.851562 9.3125 -3.878906 9.3125 -5.265625 C 9.3125 -6.660156 9.03125 -7.691406 8.46875 -8.359375 C 7.914062 -9.023438 7.113281 -9.359375 6.0625 -9.359375 C 5.007812 -9.359375 4.203125 -9.023438 3.640625 -8.359375 C 3.078125 -7.691406 2.796875 -6.660156 2.796875 -5.265625 C 2.796875 -3.878906 3.078125 -2.851562 3.640625 -2.1875 C 4.203125 -1.53125 5.007812 -1.203125 6.0625 -1.203125 Z M 6.0625 -1.203125 "/></g></g></g><g fill="#000000" fill-opacity="1"><g transform="translate(111.074034, 239.452086)"><g><path d="M 4.8125 0.203125 C 4.144531 0.203125 3.53125 0.113281 2.96875 -0.0625 C 2.40625 -0.238281 1.925781 -0.476562 1.53125 -0.78125 C 1.144531 -1.09375 0.875 -1.4375 0.71875 -1.8125 L 1.640625 -2.78125 L 1.84375 -2.78125 C 2.1875 -2.25 2.597656 -1.851562 3.078125 -1.59375 C 3.566406 -1.332031 4.144531 -1.203125 4.8125 -1.203125 C 5.59375 -1.203125 6.179688 -1.351562 6.578125 -1.65625 C 6.984375 -1.957031 7.1875 -2.378906 7.1875 -2.921875 C 7.1875 -3.335938 7.0625 -3.679688 6.8125 -3.953125 C 6.570312 -4.222656 6.179688 -4.421875 5.640625 -4.546875 L 3.859375 -5 C 2.910156 -5.226562 2.21875 -5.585938 1.78125 -6.078125 C 1.34375 -6.578125 1.125 -7.195312 1.125 -7.9375 C 1.125 -8.507812 1.269531 -9.003906 1.5625 -9.421875 C 1.851562 -9.847656 2.273438 -10.175781 2.828125 -10.40625 C 3.378906 -10.632812 4.035156 -10.75 4.796875 -10.75 C 5.765625 -10.75 6.523438 -10.613281 7.078125 -10.34375 C 7.640625 -10.070312 8.078125 -9.695312 8.390625 -9.21875 L 7.515625 -8.359375 L 7.3125 -8.359375 C 6.976562 -8.742188 6.609375 -9.019531 6.203125 -9.1875 C 5.804688 -9.363281 5.335938 -9.453125 4.796875 -9.453125 C 4.097656 -9.453125 3.5625 -9.328125 3.1875 -9.078125 C 2.820312 -8.828125 2.640625 -8.46875 2.640625 -8 C 2.640625 -7.570312 2.769531 -7.226562 3.03125 -6.96875 C 3.289062 -6.707031 3.75 -6.492188 4.40625 -6.328125 L 6.15625 -5.90625 C 7.070312 -5.695312 7.734375 -5.335938 8.140625 -4.828125 C 8.546875 -4.328125 8.75 -3.695312 8.75 -2.9375 C 8.75 -2.320312 8.601562 -1.773438 8.3125 -1.296875 C 8.019531 -0.828125 7.578125 -0.457031 6.984375 -0.1875 C 6.390625 0.0703125 5.664062 0.203125 4.8125 0.203125 Z M 4.8125 0.203125 "/></g></g></g></svg>